<svg version="1" xmlns="http://www.w3.org/2000/svg" width="1194.667" height="1194.667" viewBox="0 0 896.000000 896.000000"><path d="M19.9 5.2c0 2-.1 2.1-.8.5-.6-1.5-.9-1.6-1.7-.5C15.7 7.3 15 10 16.1 10c.6 0 .7.6.2 1.2-.4.7-.7 2.4-.5 3.8.1 1.4-.1 1.9-.4 1.2-1-2.1-2.2-1.3-2.9 1.8-.4 1.6-1.2 3-1.8 3.1-.7 0-.3.4.8.8 1.9.8 1.9.8-.2 1.5-1.3.4-2.3 1.3-2.3 2.1 0 .7-.6 1.5-1.2 1.7-.9.3-1.4 4-1.5 12.6L6 51.9l5.1 5c2.8 2.8 4.9 5.6 4.6 6.3-.5 1.6 1 4.8 2.3 4.8.6 0 1-.7 1-1.5s.7-1.5 1.5-1.5c.9 0 1.5-.9 1.5-2.5 0-1.5-.6-2.5-1.4-2.5-.9 0-1.2-.7-.9-2 .4-1.4 0-2-1.2-2-2.2 0-4.9-2.7-3.5-3.5 1.5-.9 1.2-2.5-.5-2.5-.8 0-1.5-.5-1.5-1 0-.6-1.1-1-2.5-1S8 47.5 8 47c0-.6.6-1 1.4-1 .8 0 1.7-1.5 2-3.5.7-3.8.2-5.5-1.7-5.5-.7 0-1.3-1.8-1.4-4.6-.1-4.4 0-4.6 2.2-4 2.7.7 4.9-2.1 3.9-4.8-.4-1.2 0-1.6 1.6-1.6s2-.4 1.5-1.9c-.3-1.1-.1-2.2.5-2.6.5-.3 1-2.2 1-4.1 0-2.4.5-3.4 1.5-3.4.8 0 1.5.7 1.5 1.5s.7 1.5 1.5 1.5c.9 0 1.5-.9 1.5-2.5 0-1.4.5-2.5 1.1-2.5.5 0 .8-.4.4-.9-.3-.5-.1-1.2.5-1.6.6-.3 1 .3 1 1.6 0 1.8.5 2.1 3 1.7 2.6-.4 3-.1 3 1.9 0 1.4.6 2.3 1.5 2.3.8 0 1.5-.9 1.5-2s.7-2 1.5-2 1.5.9 1.5 2 .7 2 1.5 2 1.5-.9 1.5-2c0-1.3.7-2 2-2s2 .7 2 2c0 1.1.5 2 1 2 .6 0 1-.8 1-1.8s.3-2.2.8-2.6c.4-.4.7-1.3.7-1.9 0-.8 2-1.1 5.8-1 6.1.2 8.6 1.8 8.7 5.5 0 3.6 2.8 1.8 3.5-2.2.6-3.8 2.5-5.7 2.5-2.5 0 .8.9 1.5 2 1.5s2-.6 2-1.3c0-.8 1.9-1.2 6.2-1.2 4.9 0 6.3.3 6.3 1.5 0 .8 1 1.6 2.3 1.8 1.7.3 2.2-.2 2.2-1.7 0-1.7.7-2.1 3.8-2.2l3.7-.1-4-.8c-2.2-.4-20.1-.8-39.7-.9L20 3l-.1 2.2zM104 4c-3.1.7-2.9.8 2.1.9 4.8.1 5.7.4 6.2 2.2.6 2.4 4.2 2.3 4.2-.1 0-.8.8-1.6 1.8-1.8 1-.2 1.7.3 1.7 1.1s1.3 1.7 3 2c2.1.5 3 1.2 3 2.7 0 1.1.5 2 1 2 .6 0 1-.8 1-1.8 0-.9.8-2.7 1.8-4 1.6-2 2.5-2.3 7.2-2 4.1.2 5.5.7 5.5 1.8 0 .8 1 1.6 2.3 1.8 1.7.3 2.2-.2 2.2-1.7 0-1.2.5-2.1 1.1-2.1.5 0 .8-.4.4-.9-.6-1.1-39.3-1.2-44.5-.1zM154.5 4c-.3.5-.1 1 .4 1 .6 0 1.1.8 1.1 1.9 0 1.5.8 1.9 4.5 1.9 3.8.1 4.5-.2 4.5-1.8 0-1.7.7-2 4.5-2 3.9 0 4.5.3 4.5 2.1s.5 2.1 3 1.7c2.6-.4 3-.1 3 1.9 0 1.6.6 2.3 2 2.3 1.5 0 2-.7 2-2.5 0-1.4.5-2.5 1-2.5.6 0 1 1.1 1 2.5 0 3.3 3.7 3.5 4.2.2.2-1.2.8-2.2 1.3-2.2.6 0 1.1 1 1.3 2.2.4 2.8 2.2 3 2.2.3 0-1.1.5-2 1-2 .6 0 1-.9 1-2 0-1.7.4-1.9 2.8-1.4 1.5.4 3.2 1.4 3.8 2.2 1.6 2.2 3.9.9 4.2-2.2L208 3h-26.5c-16.5 0-26.6.4-27 1zM209.3 5.8c.5 3.4 3.6 4.3 4.4 1.3.7-2.7 3.3-2.7 3.3 0 0 1.8.4 2 3 1.4 2.7-.6 3-.4 3 1.9 0 4.2 2.7 3.1 3.4-1.4.6-3.8.8-4 4-4s3.5.3 4.1 4c.7 4.3 3.1 5.5 3.7 1.7.2-1.2.8-2.2 1.3-2.2.6 0 1.1 1 1.3 2.2.4 2.5 3.2 3.2 3.2.9 0-.7.7-2.7 1.5-4.2 1.3-2.5 1.5-2.6 1.5-.8s.6 2.1 4.4 2.1c3.5.1 4.5-.3 4.9-1.8.4-1.3 1.4-1.9 3.4-2 2.6 0 2.7-.1.6-.9-1.3-.5-13.3-.9-26.8-.9l-24.5.1.3 2.6zM265.4 4.6c.3.9.6 2 .6 2.5s.9.9 2 .9 2-.7 2-1.5.5-1.5 1-1.5c.6 0 1 .9 1 2.1 0 1.6.5 2 2.8 1.7 2.2-.2 2.8.1 3 1.9.5 3.2 3.2 2.9 3.2-.3 0-3.1 2.3-2.8 2.8.4.5 3.1 3.2 2.8 3.2-.3 0-1.4.5-2.5 1.1-2.5.5 0 .7-.5.4-1-.3-.6.3-1 1.4-1 1 0 2.6-.3 3.5-.6 1.2-.5 1.7.3 2.2 3.5.7 4.6 3.4 5.8 3.4 1.5 0-3.1 2.3-2.8 2.8.4.4 2.8 3.2 2.9 3.2.1 0-1.1.5-3 1.1-4.2l1.2-2.1.9 2.3c.6 1.9 1.3 2.2 3.3 1.7 2.2-.6 2.5-.3 2.5 1.9 0 3.2 2.7 3.4 3.2.2.2-1.2 1-2.2 1.8-2.2s1.6 1 1.8 2.2c.4 2.8 2.2 3 2.2.3 0-1.1.4-2 .9-2s1.1-.8 1.4-1.8c.2-1 .7-.2 1.1 2 .9 4 2.6 5.2 2.6 1.8 0-1.1.7-2 1.5-2s1.5.9 1.5 2c0 1.4.7 2 2.1 2 1.4 0 1.9-.5 1.6-1.5-.4-.8-.2-1.7.3-2 .6-.4 1-1.5 1-2.6 0-1 .5-1.9 1-1.9.6 0 1 .7 1 1.5 0 2.1 3.8 1.9 4.3-.3.4-1.4.6-1.4 1.2.5.9 2.7 4.5 3.1 4.5.5 0-1.4 1-1.7 6.2-1.7 4.1 0 6.3.4 6.3 1.2 0 .6.3 1.5.8 1.9.4.4.7 1.6.7 2.6s.7 1.8 1.5 1.8 1.5-.9 1.5-2c0-1.5.9-2.2 3-2.7 1.7-.3 3-1.2 3-1.9 0-3.1 2-1.1 2.6 2.6.7 4.1 3.4 5.8 3.4 2.1 0-1 .7-2.1 1.5-2.5 1.1-.4 1.5.1 1.5 1.9 0 3.2 2.7 3.3 3.2.2.2-1.5 1.1-2.3 2.8-2.5 1.3-.2 3-1.1 3.7-2 1.1-1.6 1.2-1.6 1.3-.1 0 1.8 2.6 3.3 4.1 2.3.5-.3.7-.9.4-1.4-.3-.5-.1-1.1.5-1.5.5-.3 1 .1 1 .9 0 2 3.6 2.1 4.4.1.4-1 2-1.5 5.1-1.5 3.8 0 4.5.3 4.5 2 0 2.1.8 2.4 3.4 1.4.9-.3 1.3-1 1-1.5-.3-.5.9-.9 2.5-.9 2 0 3.1-.5 3.1-1.4 0-1.2-11.2-1.5-78.6-1.5-71.2-.1-78.6.1-78 1.5zM424 6c0 2.7.3 3 3 3 2.3 0 3 .4 3 2 0 1.1.7 2 1.5 2s1.5-.9 1.5-2c0-1.6.7-2 3-2s3-.4 3-2c0-1.1.4-2 .9-2 1 0 2.5 4.8 2.2 6.7-.1.7.5 1.3 1.4 1.3.8 0 1.5-.6 1.5-1.4 0-.7.7-2.7 1.5-4.2 1.4-2.7 1.5-2.7 1.5-.7 0 1.6.6 2.3 2 2.3 1.2 0 2.4-1 3-2.3.7-1.7.9-1.8.9-.5.1 1.2.9 1.8 2.5 1.8 1.5 0 2.6-.7 2.9-1.8.4-1.4.6-1.4 1.2.5.9 2.7 4.5 3.1 4.5.5.1-1.5.2-1.4 1.2.3.6 1.1 1.2 2.1 1.3 2.3.7.9 3.5-1.3 3.5-2.9 0-1.4.7-1.9 2.6-1.9 1.4 0 2.2-.4 1.9-1-.3-.5-10.8-.9-26-.9H424V6zM477.5 4c-.3.5-.1 1 .4 1 .6 0 1.1.9 1.1 2 0 1.7.7 2 4.1 2 3.3 0 4.2-.4 4.6-2 .5-1.9.6-1.9 1.9.6.8 1.4 1.4 3.3 1.4 4 0 2.6 3 1.5 3.1-1.1.2-4.4.4-4.8 1.7-5.3.7-.2 1.2.5 1.2 1.7 0 1.8.6 2.1 4.5 2.1 3.2 0 4.5-.4 4.5-1.4 0-.8.3-2.1.6-3 .5-1.4-1.1-1.6-13.9-1.6-8.7 0-14.8.4-15.2 1zM509 6c0 2.3.4 3 2 3 1.1 0 2.4-.8 2.8-1.8 1-2.5 6.9-2.6 7.5 0 .4 1.4 1.3 1.8 3.4 1.6 2.3-.2 2.9.1 3.1 1.9.2 1.3.7 2.3 1.2 2.3s1-1 1.2-2.3c.2-1.2 1-2.2 1.8-2.2s1.6 1 1.8 2.2c.4 2.9 2 3 2.4.1.2-1.7 1-2.2 3.3-2.3 2 0 3-.5 3-1.5 0-.8.8-1.6 1.8-1.8 1-.2 1.7.3 1.7 1.2 0 .9.8 1.6 2 1.6 1.1 0 2-.7 2-1.5s.5-1.5 1-1.5c.6 0 1 .9 1 2 0 1.3.7 2 2 2s2-.7 2-2c0-1.1.5-2 1-2 .6 0 1 .9 1 2 0 2.3 3.4 2.8 4.7.7.4-.8 2-1.7 3.5-2.1 2.6-.6 2.8-.4 3.4 3.4.9 5.3 3.4 5.5 3.4.2.1-3 .3-3.4 1.1-2 1.4 2.5 4.9 2.3 4.9-.2 0-1.7.7-2 4.3-2 3 0 3.8-.3 2.7-1-.9-.6-16.9-.9-39.2-.9H509V6zM590 4c-2.4.7-2.3.7.9 1.1 2.4.3 3.5 1 3.7 2.2.3 2.5 1.4 3.4 2.2 2 .4-.7 2.1-1.1 3.7-1 1.8.1 3-.3 3.1-1.1.3-2.6.6-2.6 1.4-.5.5 1.3 1.6 2.3 2.4 2.3.7 0 1.7-1 2.1-2.3.7-2.1.7-2.1 1.2-.2.3 1.1 1 2.5 1.5 3.2.5.7.7 1.7.3 2.3-.3.6.3 1 1.4 1 1.4 0 2.1-.6 2.1-2 0-1.7.6-2 2.8-1.8 2.1.2 2.8-.2 3-2 .3-1.9.9-2.2 4.8-2.2 3.8 0 4.4.3 4.4 2s.6 2 2.8 1.8c2.1-.2 2.8.2 3 1.9.4 2.8 3.2 3.1 3.2.3 0-1.6.7-2 3-2 2.6 0 3-.3 3-2.9V3.2h-26.7c-14.8 0-27.9.4-29.3.8zM649 4.1c0 .5 1.1.9 2.4.9 2 0 2.5.6 3.1 4 .7 4 3.5 5.8 3.5 2.2 0-1 .3-2.2.8-2.6.4-.4.7-1.3.7-1.9 0-.7 1.5-1.2 3.5-1.2 3.2 0 3.6.3 4.4 3.7.9 3.6 2.6 5.2 2.6 2.5 0-1.8 2.4-6.7 3.3-6.7.4 0 .7.7.7 1.5s.9 1.5 2 1.5 2-.7 2-1.6c0-1.1.8-1.4 3.3-1.2 1.7.2 3.2.8 3.2 1.5 0 .6.3 1.5.8 1.9.4.4.7 1.6.7 2.6s.7 1.8 1.5 1.8 1.5-.9 1.5-2 .7-2 1.5-2 1.5.9 1.5 2 .7 2 1.5 2 1.5-.9 1.5-2c0-1.6.7-2 3-2 2.7 0 3-.3 3-3V3l-26 .1c-14.3.1-26 .5-26 1zM703.4 4.6c.3.9.6 2.3.6 3.1 0 1.2.7 1.4 3 .9 2.7-.5 3-.3 3 1.9 0 1.6.6 2.5 1.5 2.5s1.5-.9 1.5-2.5.6-2.5 1.5-2.5c.8 0 1.5.4 1.5 1 0 .5.7 1 1.5 1s1.5-.9 1.5-2 .4-2 .9-2c1.1 0 2.1 2.5 2.1 5.1 0 2.6 2.8 2.4 3.2-.3.5-3.2 2.8-3.5 2.8-.4 0 3.2 2.7 3.5 3.2.3.4-2.9 3.1-2.8 3.8.2l.5 2.4 1.2-2.7c1.5-3.1 3.3-3.4 4-.6.7 2.6 1.9 2.5 2.6-.2.5-1.8.8-1.9 2.2-.8.9.7 1.4 1.9 1.1 2.7-.3.7 0 1.3.7 1.3 1.2 0 3.7-4.4 3.7-6.7 0-.9 1.4-1.3 4-1.3 2.9 0 4 .4 4 1.5 0 .8.9 1.5 2 1.5s2-.7 2-1.5.5-1.5 1-1.5c.6 0 1 1 1 2.1 0 1.9.4 2.1 3 1.5 2.7-.5 3-.3 3 1.9 0 1.6.6 2.5 1.5 2.5s1.5-.9 1.5-2.5c0-2.2.3-2.4 3-1.9 2.6.6 3 .4 3-1.5 0-3.7 1.9-2.3 2.6 1.9.7 4.1 3.4 5.7 3.4 2 0-1.6.7-2 3-2s3-.4 3-2c0-1.1.5-2 1.1-2 .5 0 .8-.4.4-.9-.3-.6-18.7-1-45.6-1-40.6-.1-45 .1-44.5 1.5zM734.5 6c.3.5-.1 1-1 1s-1.3-.5-1-1c.3-.6.8-1 1-1 .2 0 .7.4 1 1zm39.3.7c-1 .2-2.6.2-3.5 0-1-.3-.2-.5 1.7-.5s2.7.2 1.8.5zM795.2 5.4c.2 2 .9 2.5 4.1 3 4.1.7 5.2.3 5.2-1.7 0-.7.8-1.3 1.8-1.5 1.2-.2 1.7.3 1.7 1.7 0 1.6.6 2.1 2.5 2.1 1.8 0 2.5.5 2.5 2 0 1.3.7 2 1.9 2 1.5 0 2.1-1 2.6-4.2.6-3.6.9-4 2-2.5 1.4 2 4.5 2.3 4.5.4 0-.8 2.2-1.3 7-1.4 5.6-.2 7 0 7 1.2 0 1.1 1.2 1.5 4.5 1.5s4.5-.4 4.5-1.5c0-1.2 1.4-1.5 6.3-1.6 5.4-.1 5.7-.2 2.8-.9-1.9-.4-16.4-.8-32.2-.9H795l.2 2.3zM860.9 3.5c-.3.2-.1 2.5.5 5 1.1 4.5 3.6 6.3 3.6 2.5 0-1.1.7-2 1.5-2s1.5.9 1.5 2c0 2.8 2.8 2.5 3.2-.3.2-1.2 1-2.2 1.8-2.2s1.6 1 1.8 2.2c.2 1.3.8 2.3 1.3 2.3s.9.7.9 1.5c0 .9.9 1.5 2.5 1.5 2.1 0 2.5.5 2.5 3 0 2.2.5 3 1.8 3.1 1.2 0 1.3.2.3.6-1.9.8-5.1 3.6-5.1 4.5 0 .5 1.1.8 2.5.8 1.9 0 2.6.7 3.4 3.7 1.2 4.2.8 5.3-2 5.3-1 0-1.9.7-1.9 1.5s.5 1.5 1 1.5c.6 0 1 .4 1 1 0 .5-.7 1-1.5 1s-1.5.4-1.5 1c0 .5-.9 1-2 1s-2 .4-2 1c0 .5.7 1 1.5 1 1.8 0 1.9.4.3 3.1-1 1.7-1 2.3 0 2.6 1.9.7 1.4 2.3-.7 2.3-2 0-3.5 2.5-2.5 4.1 1 1.7 4.6.9 5.1-1.1.3-1.1.9-2 1.4-2 .4 0 1.1-1.6 1.5-3.5.3-1.9 1-3.5 1.5-3.5s.9-1.3.9-3c0-2.1.4-2.8 1.4-2.4 1.8.7 4.6-4.9 4.6-9.2 0-1.8-.6-3.4-1.2-3.7-1-.3-1.3-3.6-1.3-12.2s.3-11.9 1.3-12.3c.6-.2 1.2-.7 1.2-1.2 0-.9-29.3-1.4-30.1-.5zm19.7 6.5c.8 0 1.4.7 1.4 1.5 0 .9-.9 1.5-2.5 1.5-2.6 0-2.9-.7-1.8-3.6.4-1.1.8-1.3 1.1-.6.2.7 1 1.2 1.8 1.2zM150.8 4.7c.7.3 1.6.2 1.9-.1.4-.3-.2-.6-1.3-.5-1.1 0-1.4.3-.6.6z"/><path d="M77.8 7.7c.6.2 1.8.2 2.5 0 .6-.3.1-.5-1.3-.5-1.4 0-1.9.2-1.2.5zM515.6 8.5c.4.8 1 1.5 1.4 1.5.4 0 1-.7 1.4-1.5.4-1-.1-1.5-1.4-1.5-1.3 0-1.8.5-1.4 1.5zM826.8 7.7c.6.2 1.8.2 2.5 0 .6-.3.1-.5-1.3-.5-1.4 0-1.9.2-1.2.5zM418 9.5c0 .8.5 1.5 1 1.5.6 0 1-.7 1-1.5s-.4-1.5-1-1.5c-.5 0-1 .7-1 1.5zM95 28.5c0 1.5-2.8 2-9.2 1.5-2.4-.1-2.8.2-2.8 2.4 0 2.1.5 2.6 2.5 2.6 1.7 0 2.5-.6 2.5-1.8 0-1.4.2-1.4.9-.3.5.8 1.6 1.1 2.5.8.9-.4 1.6-.2 1.6.3 0 .6.9 1 2 1 1.3 0 2 .7 2 2 0 1.1-.4 2-.9 2s-1.2 1.3-1.6 3c-.4 1.6-1.1 3-1.6 3s-1.1 1.1-1.5 2.4c-.3 1.4-1.3 2.7-2.1 3-1 .4-1.3 1.4-.9 3 .5 2 .1 2.4-2.4 3-2 .4-3 1.2-3 2.4 0 .9-.9 2.5-2 3.5-1.2 1-1.8 2.2-1.4 2.8.3.6 1.1.4 1.8-.7.9-1.2 1.5-1.4 2-.6 1.2 2 2.6 1.3 2.6-1.2 0-1.9.7-2.6 3-3.1 3.1-.7 4.2-3.8 1.8-4.8-.7-.3-.3-.6 1-.6C93 54 94 53.5 94 53c0-.6.9-1 1.9-1 1.4 0 2.1-.8 2.3-2.8.2-1.9.9-2.7 2.2-2.7 1.1 0 2.1-.6 2.3-1.3.3-.6-.2-1.2-1.1-1.2-1.9 0-2-.5-.6-3 .6-1.1 1.7-1.7 2.5-1.4.8.4 1.5.2 1.5-.4 0-.5-1.1-1.3-2.5-1.6-2.7-.7-4.5-4-4.5-8.2 0-1.5-.6-2.4-1.5-2.4-.8 0-1.5.7-1.5 1.5zm2 20.4c0 .5-.7 1.1-1.5 1.5-.9.3-1.5 0-1.5-.9 0-.8.7-1.5 1.5-1.5s1.5.4 1.5.9zM73 36.9c-1.4.4-2.9 1.7-3.5 2.9C69 41 68 42 67.3 42c-2 0-1.5 3.7.5 4.2 2.3.6 4.2-.1 4.2-1.5 0-.7 1.8-2.9 4-5 3.5-3.3 3.7-3.7 1.7-3.6-1.2.1-3.3.4-4.7.8zM63.7 49.7c-.4.3-.7 2.6-.7 5 0 4.3 0 4.4 3.3 4.1 3.1-.2 3.2-.3 3.2-4.8 0-4.2-.2-4.6-2.6-4.8-1.4-.1-2.9.1-3.2.5zM844 57.9c0 1.1-.5 2.3-1.1 2.7-.6.3-.8 1.7-.5 3 .4 1.4.2 2.4-.4 2.4-.5 0-1-.7-1-1.5 0-2.2-5-2-5.1.2 0 1.1-.3 1.3-.6.5-.8-2-3.3-1.4-3.3.8 0 1.5-.7 2-2.5 2-2.6 0-3.5 2.4-1.2 3.3 1 .4 1 .6 0 .6-1.9.1-1.6 5.1.2 5.1.9 0 1.5 1 1.5 2.6 0 3.5 2.3 5.6 5.5 4.8 2.2-.5 2.5-.3 2.5 1.9 0 1.4.3 3.2.6 4.1.4 1.1.1 1.6-1 1.6-.9 0-1.6.7-1.6 1.5 0 .9.9 1.5 2.1 1.5 2.4 0 5.8 3.7 5.9 6.2 0 2.9 2.8 2.1 3.4-1 .6-2.6 4.3-5.2 7.3-5.2 2.2 0 1.4-2.7-.9-3.3-2.7-.7-6.8.2-6.8 1.4 0 .5-.4.9-.9.9s-1.1-1.8-1.5-4c-.3-2.2-1-4-1.5-4s-1.2-1.4-1.6-3c-.5-2.1-1.4-3.2-3.1-3.6-1.3-.3-2.4-1.2-2.4-2 0-.7-1-2-2.2-2.8-2.7-1.9-1.2-4.1 3.7-5 1.8-.4 3.5-1.1 3.7-1.6.2-.5 2.3-1.2 4.7-1.6l4.4-.7-.5 4.6c-.4 3.4-.2 4.7.7 4.7.7 0 1.5.7 1.9 1.5.3.9 1.4 1.3 2.8 1.1 1.3-.3 3.1-.5 4.1-.5 2.8-.1 2.1-3.1-.8-3.1-2 0-2.5-.5-2.5-2.4 0-1.3-.3-3.1-.6-4-.4-1.1-.1-1.6 1-1.6.9 0 1.6-.8 1.6-2 0-1.1-.7-2-1.5-2s-1.5-.7-1.5-1.5-.4-1.5-1-1.5c-.5 0-1-.7-1-1.5s-.7-1.5-1.5-1.5c-1 0-1.5 1-1.5 3.1 0 2.7-.2 3-1.5 1.9-.8-.7-1.5-2.1-1.5-3.1 0-1.1-.7-1.9-1.5-1.9s-1.5.9-1.5 1.9zM69 61.1c0 .8.6 3.7 1.2 6.6 1.2 5.1 1.4 5.3 4 4.7 2.4-.5 2.8-.2 2.8 1.5 0 1.2.6 2.1 1.5 2.1.8 0 1.5-.6 1.5-1.4 0-.7.3-2.7.6-4.3.6-2.8.5-2.9-3.4-2.5-3.6.4-4 .1-4.6-2.3-.8-3.1-3.6-6.5-3.6-4.4zM875 61c0 .5-.7 1-1.5 1s-1.5.4-1.5 1c0 .5.9 1 2 1s2 .4 2 1c0 .5.7 1 1.5 1s1.5.7 1.5 1.5.9 1.5 2 1.5 2-.6 2-1.4c0-.8.6-1.7 1.3-1.9.8-.4.7-.6-.4-.6-.8-.1-2.6-1.2-3.9-2.6-2.4-2.5-5-3.3-5-1.5zM11.3 69.6C9.4 71.6 9.7 72 13 72c2.4 0 3-.4 3-2.3 0-1.8-.2-1.9-1-.7-.7 1.1-1.2 1.2-1.7.4-.6-.9-1.1-.8-2 .2zM886.3 69.6c-.7.7-1.3 1.8-1.3 2.3 0 .6-.7.8-1.5.5-.8-.4-1.5-.1-1.5.5s-.9 1.1-2 1.1c-3.4 0-2.2 2.7 1.5 3.4 3.4.7 4.9 2.6 2 2.6-2.3 0-2.1 8.7.3 9.3 1.6.4 1.6.5 0 .6-1 0-1.8.5-1.8 1.1 0 .5-1.1 1-2.5 1-1.6 0-2.5.6-2.5 1.5s.9 1.5 2.5 1.5c1.8 0 2.5.5 2.5 2 0 1.3-.7 2-2 2-1.1 0-2 .4-2 1 0 .5.7 1 1.5 1s1.5.5 1.5 1.1c0 .6.9.9 2 .6 1.1-.3 2-.1 2 .4s-1.1.9-2.4.9c-2.2 0-2.5.5-3.1 5.5-.5 3.7-1.2 5.5-2.1 5.5-.8 0-1.4.4-1.4 1 0 .5-1.1 1-2.5 1s-2.5.4-2.5 1c0 .5 1.1 1 2.5 1s2.5.4 2.5 1c0 .5-.7 1-1.5 1s-1.5.4-1.5 1c0 .5-1.2 1-2.6 1-3.1 0-2.8 2.3.4 2.8 1.8.3 2.2 1 2.2 3.8 0 3-.3 3.4-2.5 3.4-2 0-2.5.5-2.5 2.5 0 2.1.5 2.5 2.8 2.5 2.8 0 4.3-2.1 5.8-8.3.3-1.5 1-2.7 1.4-2.7.4 0 1-1.8 1.4-4 .3-2.2 1-4 1.5-4s1.2-1.6 1.5-3.5c.4-1.9 1.1-3.5 1.5-3.5.5 0 1.1-2.5 1.4-5.6.3-3 1-6.1 1.6-6.8.9-1.1 1.8-30.3.9-31.1-.1-.2-.9.3-1.5 1.1zM7.7 75.8C5.6 78.1 5.5 80 7.5 80c.7 0 1.8.6 2.2 1.3.9 1.5 9.5 4.7 12.5 4.7 1 0 1.8.7 1.8 1.6 0 .9.7 1.4 1.8 1.3.9-.1 2.8.3 4.2.8 3.2 1.4 4 0 3.3-5.5-.5-3.6-.9-4.2-2.9-4.2-1.9 0-2.4.6-2.5 2.7-.2 2.4-.2 2.5-.6.5-.3-1.5-1.1-2.2-2.8-2.2-1.7 0-2.5.7-2.8 2.2-.4 2-.4 1.9-.6-.5 0-1.5-.5-2.7-1.1-2.7-.5 0-1-.9-1-2s-.7-2-1.5-2c-.9 0-1.5.9-1.5 2.1 0 1.8-.2 1.9-1.5.9-.8-.7-1.5-2.1-1.5-3.1 0-2.5-3.2-2.5-5.3-.1z"/><path d="M856.6 85.6c-2.2 2.1-2 3.4.4 3.4 1.5 0 2-.7 2-2.5 0-2.9-.3-3-2.4-.9zM33.6 90.6c-1.2 3.1 7.8 8 9.5 5.2 1.5-2.4.9-3.8-1.6-3.8-1.6 0-2.5-.6-2.5-1.5 0-2-4.6-2-5.4.1zM41.2 100c-1.6 2.6-1.5 3 .3 3 .9 0 1.5-.9 1.5-2.5 0-3-.2-3.1-1.8-.5zM30.4 112.5c-4.3 4.5-4.9 6.4-2.3 7.3 1.8.7 1.9 1 .6 2.1-1 .8-1.7.9-2.2.1-.3-.5-1.3-1-2.1-1-1.8 0-6.4 4.8-6.4 6.6 0 .8-.4 1.4-1 1.4-.5 0-1 .9-1 2 0 1.5.7 2 2.6 2 2.2 0 2.5-.4 2.2-2.8-.2-2.2.1-2.8 2-3 1.2-.2 2.2-.8 2.2-1.3s1.1-.9 2.4-.9c1.9 0 2.5-.8 3.7-5.2 1.1-4.2 1.9-5.3 3.9-5.8 2.3-.5 2.6-1.1 2.2-4-.3-2-3.8-.7-6.8 2.5zM11.1 139.9c-.8.5-1.5 2.6-1.6 4.6-.1 2.1-.8 4.1-1.5 4.5-2.8 1.7-2.2 23 .6 23 .8 0 1.4.6 1.4 1.4 0 1.7 3.3 3.1 3.8 1.7.2-.6 1-1.1 1.8-1.1s1.4-.7 1.4-1.5-.3-1.4-.7-1.3c-1.4.4-5.3-1.3-5.3-2.3 0-.5 1.1-.9 2.5-.9 1.6 0 2.5-.6 2.5-1.6 0-.9-.6-1.4-1.2-1.1-.7.2-2.1 0-3-.5-1.5-.7-1.8-.4-1.8 2.4 0 2.5-.3 2.9-1 1.8-.5-.8-1-3.8-1-6.5 0-4.2.4-5.2 2.2-6 2.8-1.3 3.7-3.8 1.2-3.3-1.1.1-1.9-.2-1.9-.7 0-.5.5-.9 1.2-.7.6.1 1.4-.2 1.8-.8.3-.5 1.7-1 3.1-1 1.5 0 2.4-.6 2.4-1.5s-.9-1.5-2.5-1.5c-3.5 0-3.1-1.9.5-2.7 3.3-.6 4-2.8 1.3-3.6-1-.2-2.5-.7-3.3-1.1-.8-.3-2.1-.2-2.9.3zM867 140c0 .5-1.1 1-2.5 1-1.6 0-2.5.6-2.5 1.5s.9 1.5 2.5 1.5 2.5.6 2.5 1.5-.9 1.5-2.5 1.5-2.5.6-2.5 1.5.9 1.5 2.5 1.5c2.1 0 2.5.5 2.5 3 0 2.7.3 3 3 3 2.3 0 3-.5 3-1.9 0-1.1-.6-2.2-1.2-2.5-1-.5-1-.7 0-1.2.7-.3 1.2-2.6 1.2-6 0-5.3 0-5.4-3-5.4-1.6 0-3 .4-3 1z"/><path d="M14 154.5c0 .8.5 1.5 1 1.5.6 0 1-.7 1-1.5s-.4-1.5-1-1.5c-.5 0-1 .7-1 1.5zM371.8 159.6c-1.8.9-2.8 2.3-2.8 3.7 0 1.2-.6 3.1-1.4 4.2-.7 1.1-1.3 4.7-1.3 8.2 0 3.4-.8 9.4-1.7 13.5-1 4-2.4 10-3.2 13.4-.8 3.3-1.4 6.9-1.4 8 0 1-2 7.7-4.5 14.8-2.4 7.2-4.2 13.2-4 13.5 1.1 1 26.4-5.4 33.1-8.5 4-1.9 10.8-4.1 15.1-4.9 17-3.3 18.9-3.8 20.6-5.3 2.7-2.4 2.2-5.9-1.3-7.7-3.8-2-4.6-1.9-10.8 1-2.9 1.3-8.1 2.9-11.5 3.6-3.4.6-9.1 1.9-12.7 2.9-3.6.9-9.4 2.4-13 3.3-3.6.8-7.3 1.8-8.2 2.2-1.5.6-1.4-.4 1.1-7.2 1.5-4.3 4-10.8 5.5-14.4 1.4-3.6 2.6-7 2.6-7.4 0-.5 1.8-4.8 4-9.5 2.3-4.7 5.1-10.6 6.3-13.2 1.2-2.6 2.5-4.8 2.9-4.8.4 0 1.4-.7 2.2-1.6 5.9-5.8-7.2-12.4-15.6-7.8zM455.7 162.6c-2.2 1.2-2.6 1.8-1.7 3.4 1.5 2.8 1.3 3.8-1.9 6.6-2.2 1.9-3 3.7-3.4 7.2-.4 4.5-3.5 14.1-4.8 15.2-.3.3-2.3 1.8-4.3 3.4-3.9 3.2-4.7 6.7-2.1 9.6 2.3 2.6-.3 7.9-5.4 11-4.2 2.5-6 6.3-4.1 8.6.7.7.9 1.8.5 2.4-.3.5.1 1 .9 1 .9 0 1.6-.5 1.6-1 0-.6 2.1-1 4.6-1 8.4 0 14-4.8 14.2-12 .1-1.4.6-2.6 1.2-2.8.5-.2 1-1.1 1-2 0-1.8 11.5-6.4 19.3-7.8 4.6-.8 12.2.3 14 2 .7.7 3.1 2.5 5.4 3.9 2.3 1.4 5.9 4.8 8 7.4 7.4 9.2 13.6 15.3 15.4 15.3 1.1 0 1.9-.3 1.9-.7 0-.7-4.3-6.5-12.9-17.4-6.9-8.8-6.9-9.8-.1-10 5.1-.2 8.8-1.3 7.2-2.3-.6-.4-1.2-.4-1.2 0 0 .3-.6.2-1.2-.4-.7-.5-3.8-1.3-6.8-1.7-8.5-1-8.7-1.2-12.6-8.3-2-3.7-4.9-8.6-6.5-11-1.6-2.3-2.9-4.4-2.9-4.7 0-.2-3.4-3.8-7.5-7.9-8.1-8.2-10.3-9-15.8-6zm14.1 22.4c1.4 3 3.9 7.2 5.5 9.2l2.9 3.8h-4.1c-2.3 0-4.1-.5-4.1-1 0-.6-.6-1-1.2-.9-.7.2-3.9-.3-7.1-1l-5.8-1.3.7-4.6c.9-6 3.1-12.4 4.7-13.4 1.8-1.1 5.6 3 8.5 9.2zM580.4 162.5c-1 .8-2.9 1.5-4.1 1.5-1.6 0-2.4.8-2.8 2.7-.3 1.6-1 4.5-1.6 6.5-1.2 4.6-.4 7.9 3.3 13.7 4.3 6.8 3.6 13.7-2.4 22.9-1.7 2.6-2.8 5.7-2.8 7.8 0 4.1-1.5 7.4-3.4 7.4-1.2 0-7.6-12.3-7.6-14.7 0-.6-.8-2.1-1.9-3.4-1.9-2.5-11.1-23-11.1-24.8 0-.6-1.1-3.5-2.4-6.6-3-6.7-4.7-7-9.8-1.3-2.8 3.1-3.8 5.1-3.8 7.5 0 1.8-.4 3.3-.8 3.3-1.2 0-3.2 4.6-3.2 7.4 0 1.3.7 3.9 1.5 5.9 1.3 3.1 1.3 4-.4 8.7-1.1 3-3.1 6.2-4.7 7.5l-2.9 2.3 2 3.7c2.9 5.5 6 7.5 11.5 7.5h4.7l.2-7.3c.1-3.9.6-8.8 1.2-10.7.7-2.3.7-6.1.1-10.8-.8-7-.4-9 1.8-7.7 1.6 1 8 11.3 11.6 19 1.9 3.8 4.5 8.9 5.8 11.2 1.3 2.3 2.2 4.4 2 4.6-.5.4 1.1 3.5 4.1 8.2 2.1 3.4 9.2 10.5 10.5 10.5 1.8 0 2.9-2.9 3.3-9.5.7-10.3 2.5-17.5 5.5-21.9 3-4.4 4-10.3 4.1-24.7.1-7.3.5-10 1.6-10.9 2.5-2.1 1.3-12.5-1.6-15-2.9-2.3-4.9-2.5-7.5-.5zM268 165.3c-1.4.7-2.5 2.2-2.5 3.2-.1 1.1-.4 2.5-.8 3.2-.4.7-.7 2.7-.6 4.5.1 1.8-.1 4.7-.5 6.5-.7 3.1-.8 3.2-8.2 3.8-4.1.4-9.1.5-11 .2-4.8-.8-7.6 2-7.2 7.1.3 3.2.7 3.7 3 4 1.4.2 4.8-.7 7.5-1.9 2.6-1.2 7.1-3 9.8-3.9l5.1-1.7-.8 9.1c-.4 5-1 10.4-1.2 12.1-1.1 6.3-3.5 34-4.3 47.9l-.6 10.9-6.1 6.3c-7.5 7.7-14.6 20.6-14.6 26.6 0 4 1.7 6.8 4.3 6.8 1.9 0 8.7-7.4 11.7-12.7 1.3-2.5 3.2-4.3 4.4-4.5 2-.3 2.8-1.9 4.1-8.2.8-3.7 11.3-14.8 18.3-19.3 5-3.2 7.1-5.7 5.9-6.9-.5-.5-16.1 4.6-22.1 7.1-1.7.8-1.8.4-1.3-4.1 1.6-14.7 6.5-46.5 7.8-50.8.5-1.5.7-3.2.4-3.6-.7-1.1 2.5-17.2 3.7-18.6 1-1.3 12.4-4.4 16.3-4.4 1.6 0 2.5-.6 2.5-1.6 0-1.3-1.2-1.4-8.5-.8-4.8.4-8.5.3-8.5-.2s.5-2.5 1-4.4c.6-1.9.7-5.6.4-8.2-.6-4-1-4.8-2.8-4.8-1.1 0-3.2.6-4.6 1.3zM866.3 170.7c-2.8.5-3 3.3-.3 3.3 1.1 0 2 .7 2 1.5s-.9 1.5-2 1.5-2 .7-2 1.5.9 1.5 2 1.5 2 .4 2 1c0 .5 1.1 1 2.5 1 2.4 0 2.5-.3 2.5-6 0-6.5-.1-6.6-6.7-5.3zM330 173.5c-3 1.3-7.5 2.6-10 3-11.1 1.7-22.6 12.4-24.5 22.8-1.1 5.5 2.8 11.5 7.8 12.3 4.5.8 15.3 3.7 19.4 5.2 3.4 1.4 4.5 2.5 6.2 6.4l2.1 4.8-2.2 4.8c-1.2 2.6-4.7 7.2-7.8 10.2-5.7 5.7-18.6 13.3-21.8 12.8-2.2-.3-4.2.9-4.2 2.8 0 2.1 3.8 1 14-3.9 12.9-6.2 26.1-20.7 25.9-28.4-.1-3.3-1.8-8-3.9-10.9-1.6-2.1-7.8-5.4-10.2-5.4-3 0-15.3-6-16.2-7.9-1.4-3.1.1-6.8 4.5-11.2 6.7-6.7 18.5-10.3 24.2-7.4 1.7.8 3.6 1.5 4.4 1.5.7 0 1.3.6 1.3 1.4 0 1.8 2 2.5 4.6 1.6 3.4-1.3 3.1-7.7-.7-12.8-3.6-4.9-5-5.1-12.9-1.7zM611.1 175.8c-6.4 2.5-7.1 4.2-4.1 9.9 2.2 4.1 2.6 6.4 3.1 17.8.3 7.1.9 13.7 1.2 14.5.4.8 1.1 10 1.6 20.5 1 20.5 2.5 28.2 6.1 32 4.4 4.7 6 2.8 3.5-4-.6-1.7-.5-1.7.9.3 1 1.2 3.4 3.1 5.4 4.2 2 1.2 5.5 3.4 7.7 5 5 3.6 9.9 5.4 13 4.6 4.8-1.2 9.3-12.2 8.8-21.6-.1-3-.5-11.8-.8-19.5-.4-7.7-1.3-17.3-2.1-21.4-1.5-7.4-6.4-21.3-10.3-28.8-4.1-8.1-16.7-15.4-26.2-15.2-1.9 0-5.4.8-7.8 1.7zm20.4 15.4c6.3 2.9 14 23.3 15.6 41.8.5 5.8 1.2 13.2 1.5 16.6.6 5.5.3 6.6-2.1 10.4l-2.7 4.2-5.6-.6c-3.2-.3-6.4-.7-7.2-.7-.8 0-2.5-.5-3.7-1.1-1.8-.9-2.7-.8-4.2.6-1.9 1.7-1.9 1.6-2.5-5.6-.3-4-.6-13.8-.5-21.8 0-8-.3-16.9-.7-19.8-.6-4.7 1-22.4 2.3-24.5.7-1.1 6.9-.8 9.8.5z"/><path d="M629 205c0 1.3 3.8 3.2 5.1 2.5 1.4-1-.9-3.5-3.2-3.5-1.1 0-1.9.4-1.9 1zM559 176.6c0 .9.5 1.4 1.2 1.2 1.8-.6 2.1-2.8.4-2.8-.9 0-1.6.7-1.6 1.6zM11 186c0 1.1-.4 2-1 2-.5 0-1 .9-1 2 0 3.4 3.6 2.5 4.4-1.1.9-4.5.8-4.9-.9-4.9-.8 0-1.5.9-1.5 2zM867.7 187c-.5 2.1-1.2 3-2.6 3-1.1 0-2.3.4-2.6 1-.4.6.5 1 1.9 1 2.4 0 2.6.3 2.6 4.4 0 2.5-.4 4.8-1 5.1-2.9 1.8 2.1 6.2 5.5 4.9.8-.4 1.5-.1 1.5.5 0 1.7 4.7 1.3 5.4-.5.9-2.2.8-2.4-.9-2.4-.8 0-1.5-.4-1.5-.9s-1.2-1.1-2.6-1.3c-3-.3-5.5-3.4-3.9-4.6 2-1.5 3.5-5.3 3.5-9.2 0-3.5-.3-4-2.4-4-1.8 0-2.5.7-2.9 3zM438.5 194.9c-.6 1.1.9 2.3 1.9 1.4.9-.9.7-2.3-.3-2.3-.6 0-1.2.4-1.6.9zM356.5 196c-.3.5.1 1 .9 1 .9 0 1.6-.5 1.6-1 0-.6-.4-1-.9-1-.6 0-1.3.4-1.6 1zM6 228.5c0 23.7.2 26.5 1.6 26.5 1.3 0 1.5-.7 1.1-2.8-.5-2.2-.1-2.9 2.1-4 1.4-.6 3.2-1.2 3.9-1.2.7 0 1.3-.7 1.3-1.5 0-.9-.9-1.5-2.5-1.5-2.5 0-3.6-2.5-1.3-3.2 1.8-.6-.1-2.8-2.5-2.8-2 0-1.9-.2.7-1.5 1.5-.8 3.5-1.5 4.2-1.5.8 0 1.4-.7 1.4-1.5s-.9-1.5-2-1.5c-1.6 0-2-.7-2-3 0-2.4-.4-3-2.1-3-1.7 0-2-.5-1.7-3.8.2-2.5.8-3.7 1.8-3.7.8 0 1.6-1 1.8-2.3.3-1.7-.2-2.2-1.7-2.2-1.2 0-2.1-.4-2.1-.8 0-1 6.1-3.3 7.1-2.6.5.3.9-.2.9-1 0-.9-.6-1.6-1.3-1.6-2.7 0-6.7-2.6-6.7-4.3 0-.9-.4-1.7-1-1.7s-1 10-1 26.5zM407 203c0 .5.7 1 1.5 1s1.5-.5 1.5-1c0-.6-.7-1-1.5-1s-1.5.4-1.5 1zM592.5 203c-.3.6.1 1.3 1 1.6 1.9.8 3 0 2-1.5-.8-1.4-2.2-1.4-3-.1zM880.3 207.9c-.2 2.5.2 3 2.5 3.3 2.9.3 3.8 2.3 2.8 6.4-.4 1.5-1.4 2.4-2.6 2.4-1.1 0-2 .7-2 1.5s.9 1.5 2 1.5c1.6 0 1.9.5 1.4 2.9-.4 2.1-.2 3 1.1 3.5 1.2.4 1.5 1.3 1.1 3-.3 1.4-.2 2.7.3 3 .9.6 2.1-4 2.1-8.5 0-1.6.5-2.9 1-2.9 1.5 0 1.3-13.5-.2-14.7-.7-.6-2.5-1.3-4-1.7-1.6-.3-2.8-1.1-2.8-1.6 0-2.5-2.5-.7-2.7 1.9zM46 212.6c-.6 1.4-1 3.6-1 5 0 1.7-.5 2.4-2 2.4-1.1 0-2 .4-2 .9 0 2.1 1.3 4.1 2.6 4.1.8 0 1.4.7 1.4 1.6 0 2.2 3.2 5.3 3.8 3.6.6-1.9 4.3-1.5 4 .5-.5 2.6 3.2 3 3.9.4.3-1.2 1.2-2.1 1.9-2.1.9 0 1.4-1.1 1.4-3 0-2 .5-3 1.5-3 .8 0 1.5-.7 1.5-1.5 0-.9-.9-1.5-2.5-1.5-1.4 0-2.7-.6-2.9-1.3-1.7-6.5-2.2-7.2-4.8-6.9-1.5.1-2.9-.2-3.3-.8-1.1-1.7-2.5-1.1-3.5 1.6zm7.4 7.5c1 5.3.8 5.9-2.4 5.9-2.4 0-3-.4-3-2.3.1-6.8 4.2-9.6 5.4-3.6zM426 218c0 .5.7 1 1.6 1 .8 0 1.2-.5.9-1-.3-.6-1-1-1.6-1-.5 0-.9.4-.9 1zM838 228.5c0 1.6.6 2.5 1.5 2.5s1.5-.9 1.5-2.5-.6-2.5-1.5-2.5-1.5.9-1.5 2.5zM842 228c0 1.1.3 2 .8 2 .8 0 2.8 4.3 3.8 8.2.4 2.1 1.2 2.8 3 2.8 1.3 0 2.4.4 2.4 1 0 .5-.7 1-1.5 1-1 0-1.5 1-1.5 3 0 2.3.4 3 2 3 1.1 0 2-.5 2-1 0-.6 1.1-1 2.5-1 1.6 0 2.5-.6 2.5-1.5s-.9-1.5-2.5-1.5-2.5-.6-2.5-1.5c0-.8.5-1.5 1-1.5 1.6 0 1.2-2.7-.5-3.4-.8-.3-1.5-1.7-1.5-3.1 0-1.5-.6-2.5-1.4-2.5-.8 0-1.7-1.4-2.1-3-.5-2.5-1.1-3-3.6-3-2.2 0-2.9.5-2.9 2zM529 232c0 1.3 2.8 2.5 3.8 1.6.3-.4 0-1.1-.8-1.6-2-1.3-3-1.2-3 0zM841 234.3c0 1.9-.8 2.5-4.2 3.3-4.4 1-6.5 3.4-2.9 3.4 1.2 0 2.1.6 2.1 1.5 0 .8-.9 1.5-2 1.5s-2 .7-2 1.5.7 1.5 1.5 1.5 1.5.4 1.5 1c0 .5.7 1 1.5 1s1.5.4 1.5 1c0 .5-1.3 1-3 1-2.3 0-3 .4-3 2 0 1.1.7 2 1.5 2s1.5-.5 1.5-1.1c0-.8.4-.8 1.4 0 1.1.9 1.5.6 2.1-1.6.3-1.5 1.1-3.1 1.7-3.4 1.1-.7 2.4-16.9 1.3-16.9-.3 0-.5 1-.5 2.3zM514.5 236c.3.5 1 1 1.6 1 .5 0 .9-.5.9-1 0-.6-.7-1-1.6-1-.8 0-1.2.4-.9 1zM881 240.5c0 1.8 2.4 2 3.8.2.8-1 .5-1.3-1.4-1.5-1.5-.1-2.4.3-2.4 1.3zM397.6 249.7c1.2 3.8 2.4 8.3 2.8 10.1.5 3 .4 3.3-1.4 2.7-1.5-.5-7 1.4-8.9 3.1-.3.3 1.5 2.4 3.8 4.8l4.3 4.4-3.2 2.9-3.2 2.9 5.5 4.2c3 2.2 6.5 5.5 7.7 7.2l2.1 3h-5c-2.8 0-5.1.3-5.1.7.1.5 3 3.9 6.5 7.8 3.5 3.8 6.3 7 6.2 7.1-.1.2-2.9-.6-6.1-1.7-3.2-1.1-6-1.8-6.2-1.7-.2.2.3 2.6 1.1 5.3 2.7 8.9 2.1 9.5-3.7 3.9-8.1-7.7-21.4-17.7-19.4-14.6.4.7 1.1 2.5 1.6 4.1l.8 2.8-5.7-2.3c-5.6-2.2-19.1-5.4-23.1-5.4-2 0-1.8.4 1.4 4.2 2 2.3 3.5 4.3 3.3 4.4-.1.1-2.8-.6-6.1-1.7-3.2-1.1-8.8-2.3-12.4-2.6l-6.6-.6 1.8 2.7c1.7 2.7 1.7 2.8-.1 2.2-2.9-.9-10.7-2.5-12-2.6-1 0-1 .6-.1 2.5 1.7 3.7-.1 5.1-3.8 3.2-1.6-.8-4.4-1.8-6.2-2.2-3.3-.7-3.3-.6-3 2.5.3 3.2.2 3.3-5.7 5-5.1 1.4-21.5 7.8-21.5 8.4 0 .1 3.2 0 7.2-.2 4-.3 10.2.1 13.8.7l6.6 1.2-4.1 4.2c-4 4.3-11.6 14.9-11 15.5.2.2 1.2-.5 2.3-1.6 4.2-4.2 22.3-12.5 23.8-10.9.3.3-.3 3.1-1.5 6.2s-2.1 5.8-2.1 6.2c0 .3 1.8-1.1 3.9-3 2.7-2.5 6.5-4.4 12.1-6.1 4.4-1.4 8.4-2.6 8.8-2.6.4 0 .3 3.1-.2 7-.5 3.8-.7 7.3-.3 7.6.3.4 2.1-.8 3.8-2.6 4.3-4.2 9.3-7.3 17-10.4 5-2.1 5.9-2.2 4.7-.8-2 2.3-10.8 17.4-10.8 18.6 0 .5 1.2-.4 2.7-1.9 2.7-2.6 9.7-6.5 17.6-9.9l3.8-1.5-1.9 2.7c-2.3 3.5-4.4 8.3-3.8 8.9.3.3 1.9 0 3.7-.6 4.4-1.5 12.2-1.4 19.9.5 5.5 1.3 7.3 2.2 11.8 6.7 5.2 5.1 6.5 7.4 3.7 6.3-2.3-.8-1.9 0 3.2 7.1 3.9 5.6 4.5 6.8 3.5 8.4-1 1.6-.7 2.6 1.9 6.1 2.9 4.1 3 4.3 1 4.6-2 .3-2 .5 1 6.4 2.5 4.9 2.7 5.9 1.3 5.4-1.5-.6-1.6-.1-1.1 3.6.4 2.4.9 5.8 1.3 7.6.6 2.8.4 3.1-1.1 2.6-1.5-.6-1.6.1-1.3 6.9.3 7 .2 7.4-1.5 6.5-1-.5-2-.8-2.3-.6-.2.2-.9 3.9-1.5 8.2l-1.2 7.7-6.1 4.1c-3.3 2.3-10.3 8.3-15.3 13.4-5.1 5.1-10.5 10-12.1 10.8-19.1 9.9-70.5 15.7-118.6 13.4-15.9-.8-24.1-.8-29.9.1-10 1.4-25.9 6.7-37.3 12.4-9.9 5-27.8 16.6-33.9 22l-4 3.5 3.5 5c21.4 30.8 54.3 53.2 85.2 58.2 8.9 1.5 11.8 1.1 21.5-2.4 23.6-8.6 44.7-.2 52 20.8 1.2 3.5 1.8 8 1.8 14.7 0 9.4-.1 9.7-4.7 19.2-2.7 5.2-4.8 10.2-4.8 11 0 .8 1.5 2.8 3.3 4.4l3.3 2.9-1.4 12c-1.8 13.7-1.3 16.6 3.1 20.6 8.8 8 13.9 12 21.2 16.7 6.3 4.1 8.5 5 10.5 4.5 2.9-.7 3-.7 9 .2 3.5.5 5.7 1.8 9.5 5.4 5.9 5.5 9.6 6.8 13.1 4.5 2.4-1.5 2.7-1.5 5.5.9 4.2 3.6 9.9 4.9 20.9 5.1 7 .1 10.4.6 12.8 1.9 4.2 2.2 15.1 3.1 21.9 1.9 3.7-.7 6.9-.6 11.5.4 7.7 1.6 16.3.9 21.5-1.9 3-1.6 5.9-2.1 13.8-2.3 10.3-.2 16.9-2.1 20.7-5.8 1.4-1.5 1.9-1.5 4.6-.1 4.3 2.1 7.8.9 13.3-4.6 3.9-3.9 5.6-4.8 9.6-5.4 4.9-.7 5.3-.7 10.1-.5 3 .2 12.6-5.7 20.4-12.5 2.6-2.3 6.3-5.4 8.3-7 6.6-5.3 7-7.2 5-21.4l-1.7-12.4 3.1-2.6c1.8-1.5 3.3-3.6 3.3-4.7.1-1.1-1.7-5.8-4.1-10.5-4.9-9.9-6.3-17.4-5-27 1.8-13.2 9.2-23.5 20.8-28.9 4.8-2.2 6.9-2.6 15.1-2.5 8 0 10.7.4 17 2.9 10 3.9 20.5 3.9 33.4.1 27.1-8.1 51.6-26.1 72.1-53l5.9-7.8-3.4-2.9c-6.9-5.8-27.1-18.7-36.5-23.3-23.1-11.3-34.5-13.3-66.1-11.8-49 2.2-97.8-3.3-117.4-13.3-2.5-1.3-8.3-6.2-13-11-4.7-4.8-11.2-10.5-14.5-12.8-3.3-2.2-6.3-4.5-6.6-5-.4-.6-1-4-1.4-7.6-.9-8-1.1-8.4-3.7-7-2 1.1-2.1 1-1.6-6.6.5-7.1.4-7.6-1.3-7.2-1.5.4-1.8.1-1.4-1.6 2.9-13 2.9-13.1 1-12.3-2 .7-1.9.4 1-5.4 3-5.9 3-6 .5-6-1.8 0-1.7-.4 1.2-4.5 2.6-3.6 2.9-4.7 1.9-5.9-1.1-1.3-.5-2.6 3.3-8.1 2.5-3.6 4.6-6.8 4.6-7 0-.2-.7-.5-1.5-.7-.9-.2.5-2.2 4.2-6.1 5.1-5.3 6.2-6 12.2-7.3 7.8-1.6 14.3-1.8 19-.4 1.9.5 3.7.7 4 .5.3-.3-.5-2.6-1.8-5.1-1.2-2.6-2-4.8-1.8-5 .8-.9 13.3 5.4 18 9l4.7 3.6-2.4-4.7c-1.3-2.7-4-7.2-5.9-10.1-2-2.8-3.1-5.2-2.5-5.2 2.6 0 15.8 7.3 20.2 11.1l4.9 4.3-.5-7.7c-.3-4.2-.2-7.7.2-7.7.3 0 3.1.7 6.1 1.6 7.4 2.2 14.4 5.9 16.3 8.6 2.3 3.3 2 .3-.8-6.3l-2.3-5.7 6.6 2.3c8.7 2.9 14.9 6.1 18.4 9.3 1.5 1.4 2.7 2.2 2.7 1.8 0-1.3-6.3-10-10.8-14.8l-4.4-4.7 3.9-.8c2.1-.4 8.2-.8 13.6-.8 5.3 0 9.7-.1 9.7-.3 0-.5-9.5-4.4-18-7.3-8.3-2.8-8.5-2.9-8.3-5.9.1-3 0-3.1-3-2.5-1.8.4-4.9 1.5-7.1 2.5l-3.8 1.9.5-4c.6-4.5.5-4.5-7.3-2.5-5.8 1.5-7.1 1.3-5.2-.6.7-.7 1.2-1.6 1.2-2.1 0-1.4-12.4.1-18.7 2.2-2.9 1-5.3 1.5-5.3 1.2 0-.4 1.4-2.3 3.1-4.4 2.6-3.1 2.8-3.7 1.2-3.7-4.3 0-20.3 3.9-24.1 5.9-4.6 2.3-5.2 1.6-2.8-3.2.8-1.5 1.2-2.7.9-2.7-1.2 0-15.6 11.3-20.4 15.9l-4.9 4.8.6-3.6c.4-2 1.3-5.3 2-7.4.7-2 1-3.7.5-3.7-.4 0-3.3 1.5-6.4 3.4l-5.7 3.4 2.2-4.1c3.2-6.4 5.7-9.6 10-12.7l3.8-2.8-2.5-2c-1.4-1.2-3.1-2.2-3.7-2.4-3-1 3.1-6.2 9.6-8.3 1.8-.5 1.7-.8-1-3.6-1.6-1.6-4.9-3.7-7.5-4.6l-4.6-1.7 6.1-5.4c3.4-3 6.2-5.7 6.4-6.2.3-.9-12 1.3-16.3 3-1.6.6-3.7 1.8-4.6 2.6-1.5 1.3-1.8 1.2-2.8-1.4-.7-1.7-2.5-4.2-4-5.6l-2.8-2.7-1.7 6.5c-.9 3.6-1.6 7.4-1.6 8.5 0 2.8-1.5 3.4-5.6 2.1-1.9-.7-3.8-1-4.1-.7-.3.3.4 3.1 1.6 6.2 2 5.3 2.9 11.2 1.3 8.9-.8-1.3-4.6-3.4-6-3.4-.5 0-1.2 1.7-1.4 3.8-.3 2.1-1.9 6-3.5 8.6l-3 4.8-.6-5.7c-.6-5.5-2.8-10.5-4.7-10.5-.6 0-1 .7-1 1.5 0 2.8-2.3 6.5-4.1 6.5-1 0-2.7-1.2-3.8-2.6-2.6-3.3-1.4-5.9 3.5-8 1.9-.8 3.4-1.6 3.4-1.9 0-1.3-5.4-3.7-9.5-4.3l-4.6-.7 3-4.7c3.4-5.4 3-6.1-3.6-6-2.3 0-4.3-.3-4.3-.7 0-.3 1.2-2.4 2.6-4.4 1.4-2.1 2.3-4.1 2-4.5-.6-.6-6.1.7-9.8 2.3-1.6.6-1.6.2.2-5.1 1.1-3.1 2-6.1 2-6.6 0-1.9-2.5-.5-6.6 3.5l-4.3 4.4-2.3-2.4c-1.9-2.1-11.7-8.3-13-8.3-.2 0 .5 3 1.8 6.7zm105.2 265.2c-.1.5-10.2 12-22.3 25.5-12.1 13.6-22.8 26.4-23.7 28.5-3.5 7.7-4.9 28.9-2.5 36.1l1.2 3.5 31.5.5 31.5.5-.3 5c-.2 2.7-1 6.5-1.7 8.2-1.8 4.3-5.7 4.4-11.1.3-8.3-6.3-10.8-3.4-10.5 12.2.1 9.6-.1 11-1.9 12.8-2.5 2.5-7.6 2.7-8.4.2-.3-.9-.1-4.4.4-7.7 1.4-8.6 1.3-17-.3-18.4-1-.8-3.8-.7-10.3.1-12.9 1.6-12.9 1.6-12.9 18.6-.1 18.1-2.1 22.6-8.4 19.1l-2.6-1.5v-14.6c0-16.7-.5-18-7.1-18.2-3.5-.1-4 .2-5.7 3.7-2.1 4.6-3.6 4.5-11.5-.4-6.2-3.8-11.5-3.8-14.4.2-1.7 2.3-2 4.5-2.1 16.8-.2 12.9-.4 14.4-2.1 15.7-2.5 1.8-4.7 1.8-7.1 0-2.1-1.5-2.1-2.4-.9-18.9.8-11.4.3-12.2-7.7-15.6l-4.9-2.2v-11.1l22.8-22.7c28.3-27.9 30.1-31.1 30.2-51.7 0-11.7-.7-12.5-8.6-9.5-3.1 1.1-6.6 2.1-8 2.1-2.9 0-4 2.1-5.3 10-1.6 9.5-4.1 10.1-8.5 1.9-1.8-3.1-3.6-5.1-5.1-5.5-1.9-.5-2.8-1.7-3.8-5.2-1.5-5.6-4.2-6.8-5.7-2.7-1.1 2.9-1.6 11.8-1 19.9.2 3.9-.1 5.2-1.6 6.3-2.5 1.8-4.1 1.6-6.4-.7-1.8-1.8-2-3.3-2-13.8 0-9.9-.3-12.2-2-15-1.1-1.7-2.4-3.2-3-3.2-.5 0-1-2-1-4.5V515l54.8-.3c30.1-.1 58.2-.3 62.5-.5 4.5-.1 7.7.2 7.5.7z"/><path d="M398.8 516.7l-18.8.3v2.9c0 1.5.9 3.6 2 4.6 2.9 2.7 4 7.8 3.7 18.7-.2 8.1.1 10 1.6 11.5 1.3 1.4 2.1 1.5 3.5.7 1.5-1 1.6-2.5 1.3-10.7-.5-13.2 2-19.8 6.8-18.2 2 .6 2.3 1.3 3.5 6.7.4 1.6 1.7 3.2 3.3 4 1.5.7 3.9 3.3 5.3 5.8 1.5 2.5 3 4.5 3.5 4.5s1.5-3.2 2.2-7c1.3-7.4 3.6-10.5 7.7-10.5 1.1 0 4.4-.9 7.3-2 2.9-1.1 6-1.7 6.8-1.3 2.4.9 3.5 4.6 3.5 12.2 0 9.8-1.5 16.6-5.5 24.7-3.7 7.6-6.3 10.5-31.7 35.3L389 614.2v9.7l5 2.2c3.3 1.4 5.6 3.2 6.5 5 1.8 3.4 1.9 12.2.3 20.1-1.3 6.5-.6 9.1 2.8 9.6 2.9.3 4.5-1.2 4.5-4.4v-13.2c-.1-11.4 1.3-16.3 5-18.2 3.3-1.8 9.3-.6 14.8 2.9 6 3.9 7.7 3.9 8.5.1 1.1-5.7 10-6.1 14-.6 1.9 2.5 2.1 4.1 2.1 16.3 0 11.8.2 13.7 1.7 14.7 1.4.8 2.2.7 3.5-.7 1.5-1.5 1.9-4.2 2.3-17.3.6-18.9.5-18.7 13.2-19.9 10.3-.9 11.8-.9 13.2.5 1.3 1.3 1.4 12 .3 20.7-.9 6.3-.9 6.3 1.6 6.3 4.4 0 5.2-2.2 4.9-13.9-.3-9.6-.1-11 1.8-13.4 2.7-3.3 5.9-3.5 9.7-.3 4.7 3.9 7.2 4.9 8.8 3.6 1.6-1.3 3.5-7.2 3.5-10.8V611h-61.8l-1.6-3.4c-2.3-5-3-13.8-1.7-24.2 1.9-15.4 2.1-15.8 23.8-40 10.7-12.1 20.7-23.1 22.1-24.7l2.6-2.7-41.5.2c-22.8.2-49.8.4-60.1.5zM468 528c2.5 2.5 2.5 3.4 0 8.5-3.4 7.3-9.2 12.2-12.9 11-2.1-.6-5.1-8.4-5.1-13 0-2.7 2.6-6.4 5.4-7.5 4-1.7 10.5-1.1 12.6 1zm-26.8 65.5c2 4.4 3.1 8.3 3.2 11.8l.1 5.2H434c-10.3 0-10.5-.1-10.8-2.4-.2-1.2-.1-3.4.2-4.6.6-2.5 12.4-16.5 13.9-16.5.4 0 2.2 2.9 3.9 6.5z"/><path d="M454.1 530.2c-2 1.8-2.3 2.8-1.8 6.9.7 5.7 2.2 8.9 4.2 8.9 2.2 0 8.1-5.6 10-9.6 1-2.1 1.4-4.6 1.1-6-.6-2.2-1.2-2.4-5.9-2.4-4.1 0-5.9.5-7.6 2.2zM430.6 596.2c-4.4 4.9-5.6 7-5.6 9.5v3.3H443.3l-.6-4.8c-.6-5.1-4.2-14.2-5.7-14.2-.4 0-3.3 2.8-6.4 6.2zM286 251.6c0 .9.5 1.4 1.2 1.2 1.8-.6 2.1-2.8.4-2.8-.9 0-1.6.7-1.6 1.6zM850 251.3c-1.4.7-2.9 2.2-3.5 3.5-.5 1.2-1.3 2.2-1.7 2.2-.5 0-.8.4-.8 1 0 .5.7 1 1.5 1s1.5.4 1.5 1c0 .5.7 1 1.5 1s1.5.9 1.5 2 .5 2 1 2c.6 0 1 .6 1 1.3 0 .8 1 2.6 2.3 4 2.7 3.3 6.7 3.6 6.7.7 0-1.6-.7-2-3-2-2.8 0-3-.2-3-4 0-2.2-.4-4-1-4-.5 0-1-1.2-1-2.6 0-2.1-.4-2.5-2-2.1-1.1.3-2.3.1-2.6-.4-.3-.5.6-.9 2-.9 2.1 0 2.6-.5 2.6-2.5 0-1.4-.1-2.5-.2-2.5-.2 0-1.4.6-2.8 1.3zM880.6 254.5c-.8 4.2 0 5.8 2.5 5.2 1.2-.3 1.9 0 1.9.9 0 .8-.7 1.4-1.5 1.4-1.7 0-2.1 4.5-.5 5.5.6.3 1 1.5 1 2.6 0 1 .5 1.9 1 1.9.7 0 .8 1.3.4 3.5-.6 3.4-.5 3.5 2.3 3.5 3 0 4.1-2.1 2.3-4.5-.4-.6-1.1-4.3-1.5-8.4-.5-5.1-1.3-8.1-2.6-9.5-1.1-1.1-1.9-2.8-1.9-3.8 0-3.3-2.8-1.9-3.4 1.7zM826 254.4c0 .8-.9 1.8-2 2.1-2.1.7-2.8 2.5-1 2.5 2 0 .9 2.9-1.2 3.2-1.5.2-2.4 1.1-2.6 2.5-.3 1.9.1 2.3 2.2 2.3 1.8 0 2.6.6 2.8 2.2.2 1.2.9 2.3 1.6 2.6 1.5.5 1.7-5.4.1-6.4-.6-.3-.7-.9-.3-1.3.5-.3 1.4-1.5 2-2.6.6-1.1 2-2.4 3.2-3 2.7-1.2 2.8-2.2.2-3-1.1-.3-2-1.1-2-1.6s-.7-.9-1.5-.9-1.5.6-1.5 1.4zM6.7 256.7c-1.1 1-.8 4.3.3 4.3.6 0 1-1.1 1-2.5 0-2.6-.2-2.9-1.3-1.8zM10 259.1c0 .6-.7 1.7-1.5 2.5-1.3 1.3-1.2 1.8.9 3.8 1.4 1.2 2.8 3.4 3.1 4.8.4 1.5 1.3 2.9 2.1 3.2.8.3 1.4 1.7 1.4 3.1 0 1.4.5 2.5 1 2.5 1.2 0 1.4 6.7.2 7.2-1.1.4-2.4 9.8-1.4 9.8.4 0 .6 1.9.5 4.2-.1 3.1.7 6 3 10.5 1.7 3.5 3.4 6.3 3.8 6.3.4 0 1 1.2 1.4 2.7.3 1.5 1 3 1.3 3.3 1.4 1 4.2 6.9 4.2 8.7 0 1 .5 2.4 1.2 3.1.9.9.9 1.5 0 2.4-.7.7-1.2 2.8-1.2 4.7 0 2-.7 4.9-1.5 6.5-.8 1.5-1.3 4-1 5.5.3 1.4.2 2-.1 1.3-1.1-2.3-2.4-1.2-3 2.8-.4 2.2-1 4-1.5 4-1.1 0-.9 6.1.3 8.7.6 1.3 1.7 2.3 2.5 2.3.7 0 1.3.4 1.3 1 0 .5 1.1 1 2.5 1 1.8 0 2.5-.5 2.5-2 0-1.3-.7-2-1.9-2-1.3 0-2-.9-2.4-3.3-.6-4-.2-4.7 2.8-4.7 1.8 0 2.3-.4 1.9-1.5-.4-.8-1.3-1.5-2.1-1.5-1.1 0-1.3-.3-.5-1.3.6-.6 1.2-2.6 1.4-4.2.2-2.4.8-3.1 3.1-3.3 2.5-.3 4-3.2 1.6-3.2-1.4 0-4-2.6-3.3-3.3.3-.3 1.2-.3 2 0 1.1.4 1.4-.5 1.4-4 0-3.4-.4-4.6-1.8-4.9-1.4-.4-1.7-1.3-1.4-5 .3-3.9.7-4.5 2.3-4.1 1.4.4 1.9 0 1.9-1.7 0-1.5-.5-2-1.7-1.8-2 .4-6.5-3.1-5.7-4.4.3-.4-.2-.8-1-.8-1.2 0-1.6-1-1.6-3.5 0-1.9-.4-3.5-1-3.5-.5 0-1-.7-1-1.5 0-.9-.6-1.2-1.6-.8-1.3.5-1.3.7-.2 1.4.9.6.7.9-.9.9-2.4 0-3.1-1.4-1.3-2.5 1.7-1 1.2-4.5-.6-4.5-1.4 0-1.6-.8-1.1-5.5.6-5.6 2.3-8.5 5.1-8.5.9 0 1.6-.7 1.6-1.5s-.9-1.5-2-1.5c-1.3 0-1.8-.5-1.4-1.5.4-.8 1.7-1.5 3-1.5 1.5 0 2.4-.6 2.4-1.5 0-.8-.8-1.5-1.8-1.5-2.3 0-4.2-1.9-4.2-4.2 0-1-.7-1.8-1.5-1.8s-1.5-.9-1.5-2 .5-2 1-2c2 0 .9-1.5-2-2.8-2.1-1-3-2.1-3-3.8 0-1.3-.4-2.4-1-2.4-.5 0-1-.9-1-2s-.7-2-1.5-2-1.5.5-1.5 1.1zm17.7 62.1c-.3.8-.6.5-.6-.6-.1-1.1.2-1.7.5-1.3.3.3.4 1.2.1 1.9zM862.6 273.5c-.3.8-1.5 1.5-2.6 1.5-2 0-1.9.2.7 2.6 2.2 2 2.5 2.9 1.7 4.2-.6.9-2.2 1.8-3.6 2-2 .2-2.5.9-2.6 3.3-.1 2.4.3 2.9 2.4 2.9 1.8 0 2.4-.5 2.4-2.1 0-1.1.5-1.7 1-1.4.6.3 1 1.5 1 2.6 0 1 .5 1.9 1 1.9.6 0 1-.9 1-2s.5-2 1-2c.6 0 1-.7 1-1.5 0-1 1-1.5 3-1.5s3-.5 3-1.5c0-.8-.7-1.5-1.5-1.5s-1.5-.5-1.5-1c0-.6-.7-1-1.5-1s-1.5-.9-1.5-1.9c0-1-.7-2.2-1.6-2.5-.8-.3-1.2-1-.9-1.6.3-.5.2-1-.3-1-.6 0-1.2.7-1.6 1.5zM826 275.5c0 2.2.4 2.5 3.7 2.5h3.6l-2.3-2.5c-1.3-1.4-2.9-2.5-3.7-2.5-.7 0-1.3 1.1-1.3 2.5zM672.7 276.7c-1.2 1.2-.7 8.3.9 12.1 1.8 4.3 6.7 9.7 10.8 11.9 5.2 2.7 15 11 18.6 15.8 6.9 9.1 8.2 10.5 9.6 10.5 6.2 0-17.1-35.6-30-45.9-6.1-4.9-8.5-5.9-9.9-4.4zM837 282.5c-1.8 2.2-.3 3.4 3.5 2.8 3.3-.5 3.5-.4 3.5 2.1 0 2.2.4 2.6 3 2.6 2.3 0 3 .4 3 2 0 1.1.7 2 1.5 2s1.5-.7 1.5-1.5.5-1.5 1.1-1.5c.6 0 .9-1 .7-2.3-.3-2.4-4.8-3.9-4.8-1.5-.1.8-.8.4-1.9-1-1.1-1.2-2.9-2.2-4-2.2-1.2 0-2.4-.7-2.7-1.5-.8-1.9-2.8-1.9-4.4 0zM887 284c0 2.5-.4 3-2.5 3-1.6 0-2.5.6-2.5 1.5 0 .8.8 1.5 1.9 1.5 1 0 2.4.7 3.1 1.5 1 1.3.9 1.5-.9 1.5-1.2 0-2.1.6-2.1 1.5 0 .8.9 1.5 2 1.5s2 .7 2 1.5-.4 1.5-1 1.5c-2.2 0-.8 2.9 1.8 3.8 2.5.9 2.8 1.4 2.4 4.1-.2 1.8-1 3.1-1.8 3.1s-1.4.9-1.4 2 .7 2 1.5 2 1.5.4 1.5 1c0 .5-.7 1-1.5 1s-1.5.4-1.5 1c0 .5-.9 1-2 1s-2 .4-2 1c0 .5.9 1 2 1s2 .4 2 .9.8 1.2 1.8 1.4c1.6.4 1.6.5 0 .6-1.4.1-1.8 1-1.8 4.5 0 3.6.4 4.5 2.3 5.1l2.2.8-2.2.4c-1.3.2-2.3.9-2.3 1.4 0 1.2-3.7 1.2-4.5-.1-.8-1.3-4.5-1.3-4.5.1 0 .5-.4.7-1 .4-.5-.3-1-1.5-1-2.6 0-1-.4-1.9-1-1.9-.5 0-1 .6-1 1.3 0 3-2.5 6.7-4.2 6.1-1.1-.3-2.2.3-3 1.5-.9 1.5-2.3 2.1-5 2.1-2.1 0-3.8.4-3.8.8 0 1.5 2.4 3.2 4.7 3.2 1.7 0 2.3.6 2.3 2.2 0 3.1 1 4.4 4.1 5.1 1.9.5 2.9 1.7 3.9 4.7 1.5 4.5 1.8 4.7 3.6 2.2 1.9-2.5 1.9-8.3-.1-7.6-.8.4-1.5.1-1.5-.5s-.6-1.1-1.3-1.1c-1.8 0-6.7-4.2-6.7-5.8 0-.7.6-1.2 1.3-1.2.6 0 2.4-.6 3.8-1.4 3.8-1.9 7.9-2.8 7.9-1.6 0 .5-.4 1-1 1-.5 0-1 .9-1 2 0 2 3.3 2.9 4.4 1.2.3-.4 2.1-.6 4-.4 3.5.4 3.6.5 3.6 4.8 0 3.2-.4 4.4-1.5 4.4s-1.5 1.2-1.5 4.5.4 4.5 1.5 4.5c.8 0 1.5.4 1.5.8 0 .5-1 .8-2.2.8-2-.1-2.3.3-2.1 3.6.2 2.6-.2 3.8-1.1 3.8-1.6 0-2.8 3.7-1.5 4.6.5.3.9 1.4.9 2.5 0 3.6 2.9 2.1 3.5-1.9.6-3.3 1.9-6.9 4.6-12.4.5-1 .9-18.1.9-38.1 0-37.8-.3-41-4.3-42.1-1.1-.3-1.5-1-1.1-2 .3-.9.1-1.6-.5-1.6s-1.1 1.3-1.1 3zm1 55.6c0 .2-1.2.4-2.6.4-1.4 0-2.3-.4-2-.9.6-.8 4.6-.4 4.6.5zM212.8 289.8c-11.8 5.8-19.3 11.6-22.4 17.4-3.5 6.7-4.2 21.8-1 21.8 1.6 0 6.7-5.5 9.7-10.5 4.4-7.5 13.9-18.3 20-22.9 6.9-5.2 10.3-9.1 9.4-10.6-1.1-1.8-3.8-1-15.7 4.8z"/><path d="M884.1 300.6c0 1.1.3 1.4.6.6.3-.7.2-1.6-.1-1.9-.3-.4-.6.2-.5 1.3zM878.1 349.6c0 1.1.3 1.4.6.6.3-.7.2-1.6-.1-1.9-.3-.4-.6.2-.5 1.3zM71 368c0 2.1-.4 2.4-5.2 3.4-2.1.5-2.8 1.2-2.8 3 0 2.7 2.5 4.2 3.4 2 .8-2 4-1.7 6.1.6 1.7 1.9 1.7 2.1 0 4-1 1.1-1.4 2-.9 2 .5.1 0 .9-1.2 1.8-2.2 1.9-3.9 8.8-2.3 9.7.5.4.9-.8.9-2.4 0-1.7.5-3.1 1-3.1.6 0 1 .4 1 1 0 .5.6 1 1.4 1 .8 0 1.6-1.6 2-4 .5-3.4 1-4 3.1-4 1.4 0 2.5-.5 2.5-1 0-.6.9-1 2-1s2-.5 2-1.1c0-.6-.9-.9-2-.6-1.4.3-2 0-2-1s-.6-1.4-1.9-1c-1.4.3-1.7 0-1.3-1.5.3-1.1-.4-2.7-1.6-3.8-1.3-1.2-1.8-2.7-1.5-4 .4-1.4.1-2-1.1-2-.9 0-1.6.8-1.6 2z"/><path d="M57 380.4c0 2-.6 2.5-4.5 3-3.6.6-4.5 1.1-4.5 2.7 0 1.2.7 1.9 2 1.9 2.3 0 2.7 1.5.5 2.4-.8.3-1.5 1.5-1.5 2.6s.7 2 1.5 2c1.5 0 2 2 1.6 7.7-.2 2.8.1 3.3 2.1 3.3s2.3.5 2.4 4.5c.1 3.8-.2 4.5-1.7 4.5-3.1 0-2.1 2.7 1.2 3.4 6.9 1.4 15.9.2 15.9-2 0-.8-.9-1.4-1.9-1.4-1.1 0-2.3-.5-2.6-1-.4-.6-1.5-.8-2.4-.5-2.1.6-3.7-.9-4.6-4.8-.4-1.5-1.1-2.7-1.5-2.7-.4 0-1.1-1.1-1.4-2.5-.4-1.4-1.2-2.5-1.9-2.5-.8 0-1.1-1.6-.9-5.6.4-5.6 2.4-9.4 4.9-9.4.7 0 1.3-.6 1.3-1.4 0-.7.7-1.9 1.5-2.6 2.7-2.2 1.8-4-2-4-3 0-3.5.3-3.5 2.4zM28.8 382.8c-2.3.4-2.3 3.8-.1 4.6 2.2.9 3.5-.6 2.6-3-.5-1.2-1.5-1.8-2.5-1.6zM880.7 385c-.3 1.1-.1 2.2.3 2.5 1.4.9 3.8-.6 4.3-2.6.4-1.5 0-1.9-1.8-1.9-1.4 0-2.5.7-2.8 2zM27 390.1c0 .6.5 1.9 1 3 .7 1.3.7 1.9 0 1.9-1.2 0-1.3 3.7-.1 4.4 1.3.9 3.3 25.6 2.1 25.6-.7 0-3 5.1-3 6.6 0 .6.6 1.7 1.4 2.3 1.1.9 1.7.6 3-1.4.9-1.4 2.5-2.5 3.6-2.5 2.6 0 2.6-2.6 0-3.3-2.3-.6-2.7-2.7-.5-2.7 2.6 0 1.9-4.8-.7-5.3l-2.3-.4 2.3-.2c1.9-.1 2.2-.6 2.2-4.6 0-3.2-.4-4.5-1.4-4.5-1.1 0-1.3-.9-.9-3.4.4-2.8.2-3.5-1.3-3.9-1.4-.3-1.1-.6 1.4-1.2 3.7-.9 4.7-4.5 1.2-4.5-1.1 0-2-.7-2-1.5s.9-1.5 2-1.5 2-.5 2-1c0-.6-.9-1-2-1s-2-.5-2-1c0-.6-1.3-1-3-1-1.6 0-3 .5-3 1.1zM879 392.5c0 3-.3 3.4-2.2 3.2-2-.2-2.4.4-3.1 5.5-.6 3.9-1.4 5.8-2.3 5.8-2.1 0-1.8 4.8.4 5.3.9.3.2.5-1.5.6-1.8 0-3.3.5-3.3 1.1 0 .5-1.1 1-2.5 1-3.4 0-3.3 2.8.2 3.2 2.8.3 4.5 2.8 1.9 2.8-2.2 0-2 3.6.2 4.9 1.6 1 1.6 1 0 1.1-2.1 0-2.4 3-.6 4.8.9.9.6 1.2-1.5 1.2-1.7 0-2.7.5-2.7 1.5 0 .9.9 1.5 2.5 1.5 1.4 0 2.5.4 2.5 1 0 .5.7 1 1.5 1s1.5.4 1.5 1c0 .5-.4 1-1 1-.5 0-1 .4-1 1 0 .5.7 1 1.5 1s1.5.4 1.5 1c0 .5.7 1 1.5 1s1.5.6 1.5 1.2c0 .7.4 1.9.9 2.7.8 1.2 1.2 1.2 2.5-.2 2.2-2.2 2-4-.9-6.7-1.4-1.3-2.8-3.8-3.1-5.7-.3-1.8-1-3.3-1.5-3.3s-.9-2.3-.9-5c0-2.8.4-5 .9-5 .4 0 1.1-2.6 1.4-5.7.3-3.2 1.1-5.9 1.7-6.1.5-.2 1-1.3 1-2.5.1-1.2.9-4 2-6.2s1.9-4.5 2-5.2c0-.6.4-1.3.9-1.5.5-.2 1.3-1.5 1.6-3.1.6-2.3.4-2.7-1.4-2.7-1.7 0-2.1.6-2.1 3.5z"/><path d="M67 398.4c0 1.7.5 2.6 1.6 2.6 1 0 1.4-.7 1.2-2.2-.5-3.2-2.8-3.5-2.8-.4zM67.1 404.6c0 1.1.3 1.4.6.6.3-.7.2-1.6-.1-1.9-.3-.4-.6.2-.5 1.3zM23.2 434.5c-1.1 1.2-1 1.5.3 1.5.8 0 1.5-.7 1.5-1.5 0-1.8-.2-1.8-1.8 0zM22.8 437.8c-1.9.4-2.3 2.8-1 4.9 1.2 1.9 3.4-.1 3-2.8-.2-1.7-.8-2.3-2-2.1zM16 446c0 1.6.5 2.1 2.3 1.8 1.2-.2 2.2-1 2.2-1.8s-1-1.6-2.2-1.8c-1.8-.3-2.3.2-2.3 1.8zM881.1 448.2c-.1 1.4-.4 3.3-.7 4.2-.5 1.2 0 1.6 2 1.6 1.6 0 2.6-.6 2.6-1.5 0-.8-.4-1.5-.9-1.5s-1.4-1.2-1.9-2.8l-1-2.7-.1 2.7zM850 450.5c0 1.4-.4 2.5-1 2.5-.5 0-1 .7-1 1.5s-.7 1.5-1.5 1.5-1.5.4-1.5 1c0 .5-.9 1-2 1s-2 .4-2 1c0 .5.7 1 1.5 1s1.5.4 1.5.9c0 1.4-2.2 2.6-4.2 2.3-1.2-.2-1.8.3-1.8 1.7 0 1.2.7 2.1 1.5 2.1s1.5.7 1.5 1.5c0 .9-1 1.5-2.6 1.5-3.8 0-2.5 2.3 1.9 3.3 3 .7 3.7 1.3 3.7 3.4 0 2 .4 2.4 2.3 2.1 1.6-.2 2.1-.8 1.8-2.3-1.1-6.3-.5-13.1 1.4-15.3 2.5-2.8 2.8-2.8 6.5.8 1.7 1.6 3.5 3 4 3 .6 0 1 1.5 1 3.4 0 1.8.7 3.9 1.5 4.6.8.7 1.5 2.3 1.5 3.6 0 1.2-.7 2.9-1.5 3.8-.8.8-1.5 2.2-1.5 3 0 2.3-1.7 2-2.3-.4-.6-2.3-3.2-2.7-4.1-.5-.8 2.2 2.1 4.6 4.8 3.9 1.8-.4 2.5-.1 2.9 1.5.7 2.9 2.7 2.6 2.7-.4 0-1.4.5-2.5 1-2.5.6 0 1-1.1 1-2.5 0-1.6.6-2.5 1.5-2.5.8 0 1.5-.9 1.5-2s-.7-2-1.5-2c-.9 0-1.5-.9-1.5-2.4 0-1.9.4-2.3 2-1.9 1.1.3 2 0 2-.6s-.9-1.1-2-1.1-2-.4-2-.9.9-1.1 2-1.4c2.6-.7 2.7-4.7.1-4.7-1 0-2.1-.7-2.5-1.5-.3-.8-1.5-1.5-2.6-1.5s-2-.7-2-1.5c0-.9-.6-1.2-1.5-.9-.8.4-1.5.1-1.5-.5s-.9-1.1-2-1.1-2-.7-2-1.5-.4-1.5-1-1.5c-.5 0-1-1.1-1-2.5 0-1.6-.6-2.5-1.5-2.5s-1.5.9-1.5 2.5zM11 451.8c-1.9 2.1-1.7 13.1.2 14.4 2 1.2 3.3.4 3.6-2.5.2-1.9.9-2.7 2.3-2.7 1.2 0 1.9-.7 1.9-2 0-1.5-.7-2-2.6-2-2.3 0-2.4-.2-1-1.5.8-.8 2.2-1.5 3-1.5.9 0 1.6-.5 1.6-1.1 0-.7-1-.9-2.5-.5-1.8.5-2.5.2-2.5-.9 0-2-2.1-1.9-4 .3zM880.2 458.2c.2 1.5 1 2.3 2.3 2.3 1.3 0 2.1-.8 2.3-2.3.3-1.8-.1-2.2-2.3-2.2-2.2 0-2.6.4-2.3 2.2zM880.9 463.7c-.1.5-.2 1.9-.3 3.3-.1 1.8-.7 2.6-2.3 2.8-2.8.4-3.1 2.2-.4 2.2 1.1 0 2.3.4 2.6 1 .3.5 1.5 1 2.6 1 1.6 0 1.9-.7 1.9-5.5s-.2-5.5-2-5.5c-1.1 0-2.1.3-2.1.7zM9.6 475.2c.4 2.4.7 4.4.9 4.6.1.2 1.4 0 2.9-.4 1.9-.4 2.6-1.3 2.6-3 0-1.5-.6-2.4-1.5-2.4-.8 0-1.5-.7-1.5-1.5s-.9-1.5-2-1.5c-1.7 0-1.9.5-1.4 4.2zM880.2 486.5c.1 4 .4 4.5 2.5 4.5 1.2 0 2.3.4 2.3 1 0 .5-.7.7-1.5.4-1.1-.5-1.5.1-1.5 2 0 1.6.6 2.6 1.5 2.6 1.1 0 1.3.8.9 3-.6 2.9-.5 3 3.2 3 2.2 0 3.4-.4 2.7-.8-.6-.4-1.5-3.1-1.9-6-.3-2.8-1-5.2-1.4-5.2-.4 0-1.1-2-1.4-4.5-.6-3.9-1.1-4.5-3.1-4.5-2.1 0-2.3.4-2.3 4.5zM13 487.7c0 .7.4 1.3.9 1.3s1.1 1.8 1.5 4c.3 2.2 1 4 1.5 4 .4 0 1.3 1.5 1.9 3.2l1.2 3.3-.5-3.3c-.3-2.4-.1-3.2 1.1-3.2 1.2 0 1.5-.7 1.2-3-.3-2 0-3 .9-3 .7 0 1.3-.7 1.3-1.5 0-.9-.9-1.5-2.5-1.5-1.4 0-2.5-.4-2.5-.9s-1.3-.9-3-.9c-1.8.1-3 .6-3 1.5zM886.6 505.8c-.9 2.8.3 5.2 2.6 5.2 1.6 0 1.9-.6 1.6-3.2-.3-3.7-3.3-5.1-4.2-2zM22.2 512.7c.2 1 1.3 1.9 2.6 2.1 1.7.3 2.2-.2 2.2-1.7 0-1.6-.6-2.1-2.6-2.1-1.9 0-2.5.5-2.2 1.7zM23.8 518.7c-1 .2-1.9 1.9-2.3 4.4-.4 2.1-1 3.9-1.5 3.9-.4 0-1.1 1.5-1.4 3.4-.4 1.9-1.1 3.6-1.7 3.8-.6.2-1.2 2.5-1.3 5.2-.2 2.7-.8 5.1-1.3 5.5-2.7 1.7-2.5 14.5.2 13.5.7-.3 1.3.1 1.2.8-.1 4.1.4 4.8 3.3 4.8 2.3 0 3-.4 3-2 0-1.1-.7-2-1.5-2-1 0-1.5-1.1-1.5-3.5 0-1.9-.5-3.5-1.1-3.5-.6 0-.8-.9-.4-2 .5-1.6.2-2-1.4-2-1.2 0-2.1-.5-2.1-1 0-.6 1.1-1 2.5-1 2.2 0 2.5-.4 2.5-3.5 0-2.2.6-3.8 1.5-4.1.8-.4 1.5-1.5 1.5-2.5s.5-1.9 1-1.9c1.6 0 1.1-1.9-.9-3.7-2.4-2-1.9-3.3.9-2.6 1.1.3 2 0 2-.6s1.1-1.1 2.5-1.1 2.5-.5 2.5-1c0-.6-1.1-1-2.5-1s-2.5-.5-2.5-1c0-.6.5-1 1-1 .6 0 1-1.1 1-2.5 0-2.5-.2-2.6-3.2-1.8zM886.2 520.2c.4 3.1 5.3 3.4 5.3.3 0-1.5-.8-2.1-2.8-2.3-2.5-.3-2.8 0-2.5 2zM887.1 525.8c-.5.9-1.1 3.7-1.3 6.2l-.4 4.5-4.7.3c-2.8.2-4.7-.1-4.7-.7s-.7-1.1-1.5-1.1-1.5-.7-1.5-1.5-.4-1.5-1-1.5c-.5 0-1-1.1-1-2.5 0-2.9-.6-3.1-2.6-1.1-2.1 2.2-1.7 5.4 1.1 8 3.4 3.2 3.5 9.3.1 12.5-3.8 3.6-4.8 2-4-6.6l.7-7.6-4.4.7c-2.4.4-4.8 1.1-5.3 1.6-1.2 1.2.2 3 2.6 3 1.6 0 1.9.5 1.5 2.2-.4 1.2-.1 2.8.5 3.5.8 1 .6 1.3-.6 1.3-.9 0-1.6.4-1.6.9s-.8 1.1-1.7 1.4c-1.4.3-1.1.7 1.2 1.8 1.7.7 3.4 1.9 3.8 2.6.4.7 1.6 1.3 2.6 1.3s2.1.9 2.4 2c.8 3 3.5 2.5 3.9-.8.3-2.3.8-2.7 4.1-3 3.4-.3 3.7-.1 3.7 2.2 0 2.2.4 2.6 3 2.6 2.8 0 3-.2 3-3.9 0-2.2.3-4.6.6-5.5.5-1.3-.2-1.6-4.1-1.6-4.3 0-4.6-.2-3.4-1.7 1.1-1.3 1.1-1.7.2-2-2.7-1-1.1-2.3 2.7-2.3 3.5 0 4 .3 4 2.2v2.2l1.5-2.1c.8-1.1 1.7-3.9 2.1-6.2.4-2.2 1-4.1 1.5-4.1s.9-1.8.9-3.9c0-4.3-2.3-6.3-3.9-3.3zM876 542c0 .5-.7 1-1.5 1s-1.5-.5-1.5-1c0-.6.7-1 1.5-1s1.5.4 1.5 1zM879.4 564c.4 2.3.2 3-1 3-1.3 0-1.5.7-1 3 .5 2.7.3 3-1.9 3-1.6 0-2.5.6-2.5 1.5 0 .8.9 1.5 2.1 1.5 1.1 0 3 .5 4.2 1.1l2.1 1.2-2.2.8c-2.8 1.1-2.8 3.7.1 4.9 1.2.5 1.6.9 1 .9-.8.1-1.3 1.4-1.3 3.1 0 2-.5 3-1.5 3s-1.5 1.1-1.5 3.5c0 3.1-.3 3.5-2.5 3.5-1.4 0-2.5.4-2.5 1 0 .5 1.1 1 2.5 1s2.5.4 2.5.9.8 1.2 1.8 1.4c1.6.4 1.6.5 0 .6-2 .1-2.6 5.1-.7 5.1.5 0 .7.4.4 1-.3.5-1.5 1-2.6 1-3 0-2.3 2.8.9 3.2 2.1.2 2.8.9 3 3 .3 2.4.8 2.8 3.3 2.8 3.2 0 4-2.5 1.7-4.9-1.7-1.6-1.6-45.3.1-45.9.6-.2 1.1-1.9 1.1-3.8 0-3.1-.2-3.4-3.1-3.4-3 0-3.1.2-2.5 3zM20.8 565.7c-1.5.4-1.4.8.9 2.9 3.5 3.3 5.3 3.1 5.3-.6 0-3.1-1.4-3.6-6.2-2.3zM27.8 576.2c.8.8 1.2 4.5 1.2 10.1 0 7.7.2 8.8 1.6 8.3.9-.3 2-.6 2.5-.6s.9-1.4.9-3c0-2.6.4-3 2.6-3 3.1 0 2.8-2.3-.4-2.8-3.1-.5-2.8-3.2.3-3.2 4.1 0 3-2.7-1.5-3.4-2.6-.4-4-1.1-4-2.1 0-.9-.9-1.5-2.2-1.5-1.7 0-1.9.3-1 1.2zM29 597.5c0 .8-.4 1.5-1 1.5-1.5 0-1.2 3.9.4 5.6 2.5 2.4 4.6 1.7 4.6-1.6 0-2.1.4-2.8 1.4-2.4 2.3.9 3.1-1.8 1.1-3.3-2.5-1.8-6.5-1.7-6.5.2zM28 609c0 .5-.6.7-1.4.4-.9-.4-1.6.6-2.1 3.3-.4 2.1-1.1 4.3-1.7 5-1 1.2-1.6 12.8-.7 13.7.3.3 2.2.3 4.2-.1 4.2-.6 5.2-3.3 1.2-3.3-1.6 0-2.5-.6-2.5-1.5 0-.8.7-1.5 1.5-1.5 1 0 1.5-1 1.5-3 0-2.5.4-3 2.5-3 1.6 0 2.5-.6 2.5-1.5 0-.8-.7-1.5-1.6-1.5-2.6 0-.9-2.5 1.9-2.8 3.1-.4 3.7-3.2.8-3.2-1.1 0-2.3-.5-2.6-1-.8-1.3-3.5-1.3-3.5 0zM855.6 609.2c-1.3 4.2-1.2 5.6.5 6.7 1.1.6 1.9 1.8 1.9 2.6s.5 1.5 1 1.5c.6 0 1 .4 1 1 0 1.7-2.1 1.1-4.6-1.3-1.7-1.5-2.4-3.3-2.4-6 0-3-.4-3.7-2-3.7s-2 .7-2 3c0 2-.5 3-1.5 3-.8 0-1.5.7-1.5 1.6 0 .8.4 1.3.9 1 .5-.3 1.2.1 1.5 1 .4 1 1.5 1.4 3.3 1.2 2.4-.3 2.7.1 3.7 4.1 1.1 4.6 3.6 6.8 3.6 3.2 0-1.1.5-2.3 1-2.6.6-.3 1-2.2 1-4.2 0-3 .3-3.5 2-3 3.1.8 2.4-1.7-1-3.1-2.3-1.1-3-2-3-4.3 0-3-2.7-4.2-3.4-1.7zM887.1 623.6c-.1 1.3-.9 2.4-2.1 2.7-2.8.7-2.7 4.7.1 4.7 1.8 0 1.9.2.9 1.5-.7.8-2.1 1.5-3.1 1.5-1.1 0-1.9.7-1.9 1.5s.8 1.5 1.9 1.5c1 0 2.4.7 3.1 1.5 1 1.2 1 1.5-.4 1.5-2.3 0-2.2 5 .2 5.1 1 0 1.2.3.5.6-.7.2-1.3 1.6-1.3 2.9 0 1.3-.6 2.4-1.3 2.4-3.2 0-4.5 2.4-3.8 7 .5 4 .4 4.6-1.8 5.7-1.3.7-3 1.3-3.7 1.3-.8 0-1.4.4-1.4 1 0 .5.9 1 1.9 1 1.1 0 2.3.4 2.6 1 .3.5.1 1-.4 1-1.8 0-1.2 3.7.7 4.2 2.4.7 3.8-1.1 4.7-6 .4-2.3 1.1-4.2 1.7-4.2.6 0 .7-1.3.3-3.1-.5-2.2-.4-2.9.4-2.5.7.4 1.1-.1 1.1-1.3 0-1.1.4-2.2.9-2.5.5-.3 1.2-3 1.6-6.1.3-3 1.1-5.7 1.6-6.1 1.1-.6 1-10.1 0-11.9-.3-.6-1.1-2.6-1.7-4.5-.9-2.5-1.2-2.9-1.3-1.4zM19 632.1c0 .5.5.7 1 .4.6-.3 1-.8 1-1.1 0-.2-.4-.4-1-.4-.5 0-1 .5-1 1.1zM18 635.4c0 .8-.6 1.7-1.2 1.9-1 .4-.9.8.2 1.6 1.3.9 1.3 1.1-.2 1.1-1.9 0-2.2 1.8-1.2 5.7 1.3 4.8 4.7.7 4.9-5.7 0-.8.6-1.5 1.3-1.5.6 0 1.2-.3 1.2-.8v-2.2c0-.9-.9-1.5-2.5-1.5-1.5 0-2.5.6-2.5 1.4zM13.1 646.5c-.2 1.1-.3 2.8-.2 3.7.1 1-.4 1.8-1.2 1.8-1.5 0-3.3 6.3-2.2 7.9.3.5 0 3-.7 5.4-.9 3.5-.9 5.4 0 8.5 1.6 5.1 4.2 6.4 4.2 2.1 0-2.6.3-3 2.3-2.7 1.4.2 2.2-.2 2.2-1.2s-.8-1.4-2.3-1.2c-1.8.3-2.3-.1-2-1.5.2-1 1.2-1.8 2.2-1.8 1.1 0 2.1-.6 2.4-1.3.2-.7-.6-1.2-2.2-1.2-2.9 0-3.1-.3-1.5-3.1.7-1.5.7-2.4-.2-3.5-.9-1.1-.8-1.4.5-1.4 1 0 1.6-.9 1.6-2.5 0-1.4-.4-2.5-.9-2.5-.6 0-1.2-1.7-1.4-3.8-.2-2-.5-2.8-.6-1.7z"/><path d="M16 660c0 .5.7 1 1.5 1s1.5-.5 1.5-1c0-.6-.7-1-1.5-1s-1.5.4-1.5 1zM82.8 671.2c-.2 1.7-1.1 2.4-3 2.6-1.6.2-2.8.9-2.8 1.5 0 .7-1.1-.1-2.4-1.6-2.5-2.9-4.6-2.9-4.6-.1 0 2.3-1.8 1.6-2.2-.9-.4-3.3-4.3-3-4.3.3 0 1.7.6 2.6 2 2.9 1.1.2 2.3.8 2.7 1.4.4.7 4.2 1.1 9.2 1.2 7.7 0 8.6.2 8.6 1.9 0 1.8 3.5 5.6 5.2 5.6.4 0 .8-1.4.8-3 0-2.3.5-3 1.9-3 1.1 0 2.3-.5 2.7-1.1.8-1.3-1.6-3.1-3.3-2.4-.7.2-1.3 0-1.3-.5 0-.6-.9-1-2-1s-2-.7-2-1.5-.4-1.5-1-1.5c-.5 0-1-.7-1-1.5 0-2.4-2.8-1.7-3.2.7zM52.4 672.5c-.3 1.4-1.2 2.5-2 2.5-1.7 0-1.9 3.6-.3 4.6.6.3.9 1.8.6 3.2-.3 1.4 0 5.4.6 8.9.8 5 1.4 6.3 2.8 6.3 1.2 0 1.9-.9 2.1-2.7.4-3.2 2.8-4.4 2.8-1.4 0 2.7 2.8 2.7 3.2.1.5-3.3 2.3-2.8 2.6.7.2 2.4.8 3.3 2.1 3.3 1 0 2.4.7 3.1 1.5 1.1 1.3.8 1.5-1.4 1.5-1.6 0-2.6.5-2.6 1.5s1 1.5 2.6 1.5c2.2 0 2.5.3 2 2.2-.3 1.3-.3 4 .1 6 .4 2.8 1 3.8 2.4 3.8 1.1 0 1.9.7 1.9 1.5 0 .9.9 1.5 2.5 1.5s2.5-.6 2.5-1.5c0-.8.7-1.5 1.5-1.5s1.5.7 1.5 1.5c0 .9 1 1.5 2.6 1.5 1.4 0 2.3-.4 1.9-.9-.3-.5-.1-1.2.5-1.6.5-.3 1 .1 1 .9 0 3.5 2.8 1.5 3.4-2.4.4-2.6 1.1-4 2.1-4 .9 0 1.5-.9 1.4-2.3 0-2.1-.1-2.1-.9-.2-.7 1.7-.9 1.7-.9.2-.1-2.1-1.7-2.3-2.5-.2-.3.8-1.2 1.5-2.1 1.5-.8 0-1.5.4-1.5.8 0 1.5-6 3-10.4 2.5-4.1-.5-4.6-.8-4.6-3.1 0-1.4 1.1-4 2.5-5.8 2.9-3.8 3-4.4 1-4.4-1 0-1.5-1-1.5-3 0-1.8-.6-3.3-1.5-3.6-.8-.4-1.3-1-1-1.4.7-1.1-3.4-5-5.2-5-.7 0-1.3.4-1.3 1 0 1.8-6.8 1.1-8-.8-.8-1.2-1.3-1.3-1.6-.5-1.2 2.8-2.4 1-2.4-3.6 0-3.1.6-5.5 1.5-6.5 1.9-1.8 1.9-3.3.1-5.2-2-1.9-2.5-1.8-3.2 1.1zM69 693.6c0 .8-.4 1.2-1 .9-.5-.3-1-1-1-1.6 0-.5.5-.9 1-.9.6 0 1 .7 1 1.6zM874 678c0 2-.5 3-1.5 3-.9 0-1.5.9-1.5 2.5 0 1.4.5 2.5 1 2.5.6 0 1 .7 1 1.5 0 .9-.9 1.5-2.4 1.5-2.1 0-2.4.6-3 5-.4 2.7-1.1 5.2-1.6 5.5-1.4.9-1.2 4.5.3 4.5.7.1.5.6-.5 1.4-1 .7-1.8 2.1-1.8 3 0 .9.8 1.6 1.8 1.6 1.6.1 1.6.1 0 1.4-2.2 1.6-2.4 4.6-.3 4.6 1.7 0 2 1.6.5 2.5-1.5.9-1.2 4.5.5 5.1.9.4 1.5 1.9 1.5 4 0 1.9.4 3.4.9 3.4 2.7 0 4.1-1.5 4.1-4.1 0-1.6.5-2.9 1.1-2.9.5 0 .7.5.4 1-.3.6.5 1.4 1.9 2 2.8 1 3.5 3 1.1 3-.8 0-1.5.9-1.5 2s.7 2 1.5 2 1.5.4 1.5 1c0 .5-.9 1-1.9 1-1.1 0-2.3.4-2.6 1-.3.5-1.5 1-2.6 1-1 0-1.9.4-1.9 1 0 .5.9 1 2.1 1 1.5 0 1.9.4 1.5 1.6-.3.9-.6 1.8-.6 2 0 .2-1.1.4-2.5.4s-2.5.4-2.5 1c0 .5 1.1 1 2.5 1s2.5.4 2.5 1c0 .5-.7 1-1.5 1-.9 0-1.5.9-1.5 2.5s.6 2.5 1.5 2.5c.8 0 1.5.7 1.5 1.6 0 2.9 2.6-.9 3.4-4.9.4-2 1.1-3.7 1.6-3.7.4 0 1.1-1.9 1.5-4.3.4-2.3 1.1-4.4 1.6-4.7 1.2-.8 2.3-14.1 1.5-18.4-.9-4.6-2.9-4.7-7.3-.4-3.1 3-3.4 3.1-4.9 1.6-1.9-1.9-2.2-15.4-.5-17.1.6-.6 1.1-1.9 1.1-2.9s.4-1.8.9-1.8 1.2-2.3 1.6-5c.4-2.8 1.1-5 1.5-5 .5 0 1.2-1.6 1.6-3.5.3-1.9 1-3.5 1.5-3.5 1.3 0 1.1-3.4-.3-4.8-2.1-2.1-3.8-1.3-3.8 1.8zM15.4 681.1c.2 3.5.8 5.4 1.9 6.1 1 .5 1.7 1.4 1.7 1.9 0 .6.7 1.7 1.5 2.5.8.9 1.5 2.6 1.5 4 0 1.3.4 2.4.9 2.4s1.2 1.4 1.6 3.1c.5 2 1.2 2.9 2 2.5.9-.3 1.2 0 .9.9-.3.8 0 2.8.7 4.4 1.7 3.8 5.9 4 5.9.4 0-1.4-.6-2.3-1.5-2.3-.8 0-1.5-.7-1.5-1.5s.9-1.5 2-1.5c3.2 0 2.3-2.7-1.1-3.4-1.7-.3-3.5-.3-4 0s-.9-1.3-.9-3.5c0-2.3-.4-4.1-1-4.1-.5 0-1-.9-1-2 0-1.5-.7-2-2.5-2-1.4 0-2.5-.5-2.5-1 0-.6.5-1 1-1 1.6 0 1.2-3.7-.5-4.4-.9-.3-1.5-1.8-1.5-3.6 0-2.3-.4-3-2-3-1.7 0-1.9.6-1.6 5.1z"/><path d="M88.6 689.6c-.9 2.3.4 8.4 1.8 8.4.6 0 .4.5-.4 1.1-1.1.8-1.2 1.2-.2 1.6.6.2 1.2 1.3 1.2 2.3 0 2.7 1 3 5.8 1.7 5.1-1.4 5.4-3.2.7-4.1-3.2-.6-5.9-2.6-3.6-2.6.6 0 1.1-1.1 1.1-2.5s-.6-2.5-1.4-2.5c-.9 0-1.2-.8-.8-2.5.3-2 0-2.5-1.6-2.5-1.1 0-2.3.7-2.6 1.6zM30 716c0 1.6.5 3 1 3 .6 0 1 .7 1 1.5 0 .9.9 1.5 2.5 1.5 1.8 0 2.5-.5 2.5-2 0-1.3-.7-2-2-2-1.5 0-2-.7-2-2.5 0-1.6-.6-2.5-1.5-2.5-1 0-1.5 1-1.5 3zM34.6 724.7c-1 1-.7 2 .9 3.6 1.2 1.2 2 1.3 4 .4 2.5-1.2 3.1-2.2 1.8-3-1.8-1-6-1.6-6.7-1zM34.7 737.9c-.3 1.1 0 2.2.7 2.4 1.9.7 3.6-.4 3.6-2.4 0-2.5-3.6-2.5-4.3 0zM32 743.5c0 .8-.5 1.5-1.1 1.5-.5 0-.9.8-.8 1.7.4 2.7-1.1 10.2-2.2 10.9-1.7 1-1.1 8.4.8 9.1.9.4 1.9.1 2.1-.5.2-.7 1.5-1.2 2.8-1.2 1.5 0 2.4-.6 2.4-1.5s-.9-1.5-2.1-1.5c-2.7 0-1.9-2.4.9-2.8 2.5-.4 3.1-3.2.7-3.2-.8 0-1.5-.5-1.5-1 0-.6.5-1 1-1 1.7 0 1.1-2.9-.8-3.9-1.4-.7-1.7-1.8-1.4-4.5.2-2 .1-3.6-.2-3.6-.3 0-.6.7-.6 1.5zM867.2 763c.3 2 0 3-.9 3-.7 0-1.3.4-1.3 1 0 .5-.9 1-2 1-3 0-2.4 2.8.7 3.2 3.2.4 4.4 2.8 1.4 2.8-1.2 0-2.1.6-2.1 1.5 0 .8.9 1.5 1.9 1.5 1.1 0 2.3.4 2.6 1 .3.5 1.6 1 2.8 1.1 1.2 0 1.6.3 1 .6-1.8.7-1.6 3.3.2 3.3.8 0 1.5.4 1.5 1 0 .5-.6 1-1.4 1-.8 0-1.7.7-2 1.6-.9 2.2-.8 2.4.9 2.4.9 0 2.4 2 3.5 4.6 2.4 5.6 2.4 5.4 0 5.4-1.1 0-2 .4-2 1 0 .5.9 1 2 1 1.6 0 2 .7 2 3.3 0 1.8-.4 3.7-.9 4.3-1.6 1.7-2.2 6.2-.8 6.7.6.3 0 .6-1.5.6-2.1.1-2.6-.3-2.1-1.5.4-1.2.2-1.5-.8-1.2-.7.2-1.7 2.1-2.2 4.1-.8 3.3-1.1 3.6-3.8 3-2.2-.4-2.9-.2-2.9 1.1 0 .9-.4 1.6-1 1.6-.5 0-1-.5-1-1 0-.6-1.3-1-3-1-2.3 0-3-.4-3-2 0-1.1-.7-2-1.5-2s-1.5.9-1.5 1.9c0 1.1-.4 2.3-1 2.6-.5.3-1 1.7-1 2.9 0 2.2.4 2.4 7 2.4 3.9.1 7-.3 7-.9 0-.5.6-.9 1.4-.9 3.9 0 12-5.1 12.4-7.8.2-1.2.9-2.2 1.7-2.2.8 0 1.6-1.7 2-4 .4-2.2 1.1-4 1.6-4s.9-2.3.9-5c0-2.8-.4-5-1-5-.5 0-1-1-1.1-2.3 0-2.1-.1-2.1-.8-.2-.7 1.7-.8 1.7-1.3-.8-.3-1.5-.1-2.7.5-2.7s.3-.8-.6-1.8c-2.1-2.3-2.1-3.2-.2-3.2.8 0 1.5-.5 1.5-1 0-.6.9-1 2-1s2-.5 2-1c0-.6-.9-1-2-1s-2-.4-2-.9-1.1-1.2-2.5-1.5c-1.5-.4-2.7-1.6-3.1-3.1-.3-1.4-1-2.5-1.5-2.5s-.9-2.5-.9-5.5.5-5.5 1-5.5c.6 0 1-.7 1-1.5 0-1-1-1.5-3.1-1.5-2.9 0-3.1.2-2.7 3zM28.4 776.5c-.3.8-.3 1.9.1 2.5.3.5 0 1-.7 1-.9 0-1 .3-.2.8.6.4 1.4 2.4 1.8 4.4.5 2.9 1.2 3.8 2.6 3.8 1.1 0 2 .4 2 1 0 .5-.4 1-.9 1-1.1 0-.3 3.4 1.6 7 .7 1.4 1.3 3.9 1.3 5.7 0 3.3 1.3 4.3 4.3 3.5 1-.3 1.7-1.4 1.7-2.8 0-1.5.6-2.4 1.5-2.4.8 0 1.5-.9 1.5-1.9 0-1.4-.8-2.1-2.7-2.3-3.2-.4-4.4-2.8-1.4-2.8 1.2 0 2.1-.6 2.1-1.5 0-.8-.8-1.5-1.8-1.5-2.1 0-5.2-3-5.2-4.9 0-.7-.7-1.9-1.5-2.7-.8-.8-1.2-2.1-.8-3 .3-.9 0-1.4-.8-1.2-.9.2-1.5-.8-1.7-2.5-.4-2.9-1.9-3.6-2.8-1.2zM838 787.5c0 1.6.6 2.5 1.5 2.5.8 0 1.5.4 1.5 1 0 .5.5 1 1 1 .6 0 1-1.6 1-3.5 0-3.1-.3-3.5-2.5-3.5-2 0-2.5.5-2.5 2.5z"/><path d="M843.8 790.1c-.3 1.9.1 3.6 1 4.5.8.9 1.1 2.2.7 3.2-.5 1.2-.9 1.3-1.2.4-.3-.6-1.1-1.2-1.9-1.2-.8 0-1.4-.6-1.4-1.4 0-.8-.7-1.6-1.5-2-1.5-.6-2 .5-.8 1.8.4.4.7 1.9.8 3.4 0 1.7.5 2.7 1.5 2.7.8 0 1.6.4 1.6 1 .8 5.7 4.4 7.7 4.4 2.5 0-2.1.5-3 1.6-3 1.4 0 1.6-.8 1-5.3-.4-2.8-1.1-5.4-1.7-5.5-.5-.2-.9-1.2-.9-2.3 0-3.2-2.7-2.2-3.2 1.2zM148.6 789.5c-.3.8-1.5 1.5-2.6 1.5-1.3 0-2 .7-2 2s.7 2 2 2c1.1 0 2-.5 2-1 0-1.4 7.1-1.2 10.3.2 2 1 2.9 2.3 3.3 5 .7 4 2 4.7 5.3 2.6 2.4-1.5 5.1-.4 5.1 2 0 1.1.7 2.5 1.5 3.2.8.7 1.3 1.6 1 2-.7 1.2 2.5 5.1 5.1 6 3.6 1.4 3 3.7-1.3 4.5-2.1.4-4.4 1.2-5.2 1.8-.7.6-2.3 1.6-3.5 2.2-2.6 1.3-2.7 3.4-.3 4.9 1.5.9 2.1.7 3.2-.8.8-1 2.1-1.6 2.9-1.3.9.4 2.2-.1 3.1-.9 1.3-1.4 1.5-1.4 1.5 0 0 .9.8 1.6 2 1.6s2-.7 2-1.8c0-3 1.7-4.5 5.6-5.1 2-.3 3.9-1.1 4.1-1.7.4-1.2-3.9-3.4-6.7-3.4-1.4 0-2.1-1-2.6-3.5-.7-4.2-2.3-5.4-3.9-3.2-1 1.4-1.2 1.4-2.3-.4-.7-1-1.2-3.7-1.2-5.9 0-3.3-.3-4-2-4-1.1 0-2-.7-2-1.5 0-1.8-4.6-2.1-5.2-.3-.7 1.9-2.8-.2-2.8-2.8 0-2-.5-2.4-3-2.4-2 0-3-.5-3-1.5 0-2.1-3-1.9-4.6.2-1.3 1.7-1.3 1.7-1.4 0 0-2.1-3.6-2.3-4.4-.2z"/><path d="M140.8 797.7c-1 .2-1.8 1.1-1.8 1.9 0 2.5-3.4 9.4-4.7 9.4-.7 0-1.3.4-1.3 1 0 .5-1.3 1-3 1-1.6 0-3 .4-3 1 0 .5.7 1 1.5 1s1.5.4 1.5 1c0 .5 1.4 1 3 1 2.5 0 3 .4 3 2.4 0 1.6.7 2.7 2 3.1 4.4 1.4 5.3-1.9 1.6-5.5-2.3-2-2.3-2.4-.9-3.8 2.7-2.7 8.2-5.2 11.5-5.2 1.8 0 2.8-.4 2.2-.8-.6-.4-1.4-1.7-1.8-3-.4-1.2-1.2-2.2-1.7-2.2s-.9-.7-.9-1.5c0-1.5-3.3-1.9-7.2-.8zm1.7 4.2c.3.5.1 1.2-.5 1.6-.5.3-1-.1-1-.9 0-1.8.6-2.1 1.5-.7zM39.5 810.9c-.9 1.5.6 9.1 1.8 9.1.6 0 .2.6-.9 1.4-1.6 1.3-1.7 1.8-.6 3.5 1.4 2.5 1.6 15.1.2 15.1-.5 0-1 .8-1 1.9 0 2.2 3.1 3.2 7.1 2.4 3.2-.6 4-3.3 1-3.3-1 0-2.4-.7-3.1-1.5-1-1.3-.9-1.5 1-1.5s2.2-.4 1.8-3c-.4-2.6-.1-3 1.9-3 1.4 0 2.3-.6 2.3-1.5 0-.8-.8-1.5-1.9-1.5-1 0-2.4-.7-3.1-1.5-1-1.3-.9-1.5.9-1.5 1.2 0 2.1-.6 2.1-1.5 0-.8-.9-1.5-2-1.5s-2-.7-2-1.5.9-1.5 2-1.5 2-.7 2-1.5-.7-1.5-1.6-1.5c-2.2 0-4.4-2.5-4.4-4.9 0-2.1-2.4-2.9-3.5-1.2zM152.4 829c-.4 2.2-1 4-1.5 4s-.9.9-.9 2-.4 2-1 2c-.5 0-1-.5-1-1 0-.6-.6-1-1.3-1-.7 0-2-1.8-3-4-1.2-2.8-2.3-4-3.7-4-1.1 0-2 .4-2 1 0 .5-1.1 1-2.5 1-4.1 0-3 2.7 1.5 3.4 3.8.6 5.7 2.6 2.5 2.6-.8 0-1.5.7-1.5 1.5s.8 1.5 1.8 1.5c2.3 0 4.2 1.9 4.2 4.2 0 1 .7 1.8 1.5 1.8s1.5-.7 1.5-1.5c0-1.1.8-1.3 3-.9 2.3.5 3 .3 3-.9 0-1 1.3-1.8 3.5-2.3 3.6-.6 5-3.4 1.7-3.4-1 0-2.3-.5-3-1.2-.9-.9-.6-1.4 1.1-2.2 4.1-2.1 3.1-6.5-1.5-6.6-1.3 0-2 1.1-2.4 4zM847.9 834.7c0 1.1-.3 1.3-.6.5-.6-1.5-2.3-.6-2.3 1.4 0 .8.7 1.4 1.5 1.4.7 0 1.8.7 2.3 1.5.5 1 1.5 1.3 2.5.9 1.8-.6 2.4-3.4.8-3.4-.5 0-1.3-.9-1.6-2-.8-2.5-2.5-2.6-2.6-.3zM856.6 840.7c-1.2 1.2-.6 4.4.9 4.9.8.4 2.3 0 3.2-.7 1.5-1.2 1.6-1.2 1 .3-.5 1.5-.3 1.6 2 .7 1.5-.5 3.2-.8 4-.5.7.3 1.3.2 1.3-.3s-1.2-1.2-2.7-1.6c-1.5-.3-3-1-3.3-1.4-.7-1.1-5.6-2.2-6.4-1.4zM783 848.2c0 .7-.3 2.9-.6 5l-.6 3.6 6.1.4c6.1.3 6.1.3 6.1-2.5 0-1.5-.4-2.7-1-2.7-.5 0-1-1.1-1-2.5 0-3.1-1.7-3.3-2.2-.3-.5 3.4-3.8 3.7-3.8.4 0-1.6-.6-2.6-1.5-2.6-.8 0-1.5.6-1.5 1.2z"/><path d="M868 849.4c0 1.3.6 2.7 1.3 2.9.6.3 0 .6-1.5.6-3.6.1-3.9 3.1-.3 3.1 1.4 0 2.5.4 2.5 1 0 .5.6 1 1.3 1 .7 0 1.7 1.4 2.2 3.2 1.2 3.8 3.4 4.8 4.2 1.9.3-1.4 1.3-2.1 2.9-2.1 1.5 0 2.4-.6 2.4-1.5 0-.8.4-1.5.9-1.5 1.3 0 3.2 2.6 2.4 3.3-.3.4-.1 1.3.6 2.1.9 1.1.7 1.5-.9 1.9-2.6.7-2.6 2.7 0 2.7 3 0 2.4 1.7-1 2.9-3.2 1.1-3.9 2.8-1.5 3.7 2.2.9 1.8 2.3-.4 1.7-1.4-.3-2.3.5-3.7 3.4-1.2 2.4-2.7 3.9-4.1 4.1-2.4.4-3 1.6-1.3 2.7 2.1 1.3.1 2-4.4 1.7-3.1-.3-4.6-.9-4.6-1.8 0-2.2-8.7-1.9-9.3.3-.4 1.7-.5 1.7-.6 0-.1-2.2-5.1-2.4-5.1-.2 0 3.2-2 1.3-2.6-2.5-.7-4.5-3.4-5.6-3.4-1.5 0 1.4-.4 2.5-1 2.5-.5 0-1 .7-1 1.5 0 1-1 1.5-3 1.5s-3-.5-3-1.5c0-.8-.9-1.5-2-1.5s-2 .7-2 1.5-.4 1.5-1 1.5c-.5 0-.7-.7-.4-1.5.5-1.1-.1-1.5-2-1.5-1.6 0-2.6.6-2.6 1.5 0 .8-.7 1.5-1.5 1.5s-1.5-.7-1.5-1.5c0-.9-.9-1.5-2.5-1.5-1.4 0-2.5-.5-2.5-1.1 0-.8-.5-.8-1.5.1-1.2 1-1.5 1-1.5-.4 0-1.1.9-1.6 2.9-1.6 5.5 0 9.1-1.2 9.1-3 0-2.2-6.9-3.9-8-2-.6.9-.9.9-1.3-.1-.3-.8-.6-.2-.6 1.2-.1 3.1-1.7 3.9-7.2 3.9-3.8 0-3.9.1-3.9 3.3 0 3.2-.2 3.3-3.2 2.9l-3.1-.5 2.9-1.2 2.9-1.3-2.5-1c-1.4-.5-2.8-.8-3.2-.5-.5.2-.8 0-.8-.6 0-.5 1-1.2 2.3-1.4l2.2-.4-2.2-.2c-1.3 0-2.3-.6-2.3-1.1 0-.6-.7-1-1.5-1-.9 0-1.8-.7-2.1-1.5-.4-.8-1.2-1.5-2-1.5s-1.4-.7-1.4-1.5-.4-1.5-1-1.5c-.5 0-1-.6-1-1.4 0-.7-.7-1.9-1.5-2.6-.8-.7-1.5-2.1-1.5-3.1 0-1.2-.7-1.9-2-1.9-1.1 0-2 .4-2 1 0 1.5-8 1.2-9.6-.4-1.6-1.6-1.9-7.6-.4-7.6.6 0 1-.9 1-2 0-1.3-.7-2-2-2s-2 .7-2 1.9c0 2-5.5 5.5-7.1 4.5-.5-.3-.9.2-.9 1 0 .9.9 1.6 2 1.6s2 .4 2 1c0 .5.7 1 1.5 1s1.5.9 1.5 2c0 1.8.7 2 6 2 3.3 0 6 .4 6 1 0 .5.7 1 1.5 1 .9 0 1.5.9 1.5 2.1 0 1.2.8 2.3 2 2.6 1.7.4 2 1.4 2 5.4 0 4.6-.2 4.9-2.5 4.9-1.6 0-2.5.6-2.5 1.5 0 3.2-2 1.3-2.6-2.5-.7-4.5-3.4-5.6-3.4-1.5 0 1.4-.4 2.5-.9 2.5s-1.2.8-1.4 1.7c-.4 1.7-.5 1.7-.6 0-.1-2.3-9.1-2.6-9.1-.2 0 .9-.9 1.5-2.1 1.5-1.5 0-1.9-.5-1.5-1.5.4-1.1-.2-1.5-2-1.5-1.9 0-2.5.4-2 1.5.4 1-.1 1.5-1.4 1.5-1.3 0-1.8-.5-1.4-1.5.4-.9 0-1.5-1-1.5-.9 0-1.6.7-1.6 1.5s-.4 1.5-.9 1.5-1.1-.7-1.5-1.5c-.8-2.1-4.4-1.9-4.9.2-.4 1.7-.5 1.7-.6 0-.1-2.2-5.1-2.4-5.1-.2 0 .8-.4 1.5-1 1.5-.5 0-1-.7-1-1.5 0-1.1-1.2-1.5-4.5-1.5s-4.5.4-4.5 1.5c0 1-1.1 1.5-3.5 1.5s-3.5-.5-3.5-1.5c0-.8-.4-1.5-1-1.5-.5 0-1-.9-1-2s-.7-2-1.5-2-1.5.9-1.5 2-.7 2-1.5 2-1.5-.9-1.5-2-.7-2-1.5-2-1.5.9-1.5 2c0 1.6-.7 2-3 2-1.9 0-3 .5-3 1.4 0 1.8-1.4 2.3-5.6 1.8-2-.3-3.4-1-3.4-1.8 0-.9-1.1-1.4-2.9-1.4-2.3 0-3-.5-3.3-2.2-.5-3.2-2.8-3.5-2.8-.4 0 2.2-.4 2.6-3 2.6-2 0-3 .5-3 1.5 0 .8-.4 1.5-1 1.5-.5 0-1-.7-1-1.5 0-.9-.9-1.5-2.5-1.5s-2.5.6-2.5 1.5c0 .8-.7 1.5-1.5 1.5s-1.5-.7-1.5-1.5-.9-1.5-2-1.5-2 .7-2 1.5-.4 1.5-1 1.5c-.5 0-1-.7-1-1.5 0-1-1-1.5-3-1.5-2.3 0-3-.4-3-2 0-2.6-1.6-2.6-2.3 0-.7 2.6-3.7 2.6-3.7 0 0-1.1-.7-2-1.5-2s-1.5.9-1.5 2c0 1.6-.7 2-3 2-2 0-3 .5-3 1.5 0 .8-.4 1.5-1 1.5-.5 0-1-.7-1-1.5s-.9-1.5-2-1.5-2 .7-2 1.5c0 2.9-1.9 1.4-2.6-2-.7-3.7-3.4-4.9-3.4-1.5 0 1.8-.7 2-6 2-4.7 0-6 .3-6 1.5 0 .8-.4 1.5-1 1.5-.5 0-1-.7-1-1.5 0-2.2-4.7-1.9-5.3.2-.4 1.7-.5 1.7-.6 0-.1-2.1-4.1-2.4-4.1-.3 0 1.8-1.5 2.3-5.2 1.8-1.5-.2-2.8-1.1-2.8-1.8 0-.8-.4-1.4-1-1.4-.5 0-1-.9-1-2s-.4-2-1-2c-.5 0-1 .9-1 2 0 1.6-.7 2-3.4 2-2.4 0-3.6.5-3.9 1.7-.4 1.7-.5 1.7-.6 0-.1-2.2-5.1-2.4-5.1-.2 0 .8-.7 1.5-1.5 1.5s-1.5-.7-1.5-1.5c0-.9-.9-1.5-2.5-1.5s-2.5.6-2.5 1.5c0 1-1 1.5-3 1.5-2.5 0-3-.4-3.6-3.5-.7-3.7-3.4-4.9-3.4-1.5 0 1.6-.7 2-3 2-2 0-3 .5-3 1.5 0 .8-.4 1.5-1 1.5-.5 0-1-.7-1-1.5s-.9-1.5-2-1.5-2 .7-2 1.5c0 2.9-1.9 1.4-2.6-2-.7-3.7-3.4-4.9-3.4-1.5 0 1.1-.4 2-.9 2s-1.2.8-1.4 1.8c-.4 1.6-.5 1.6-.6-.1-.1-2.4-5.1-2.4-5.1.1 0 1.5-.6 1.7-3.4 1.4-2.6-.3-3.6-1-4-2.8-.6-2.3-2.6-3.4-2.6-1.4 0 .5-.9 1-2 1-1.3 0-2-.7-2-2 0-1.1-.7-2-1.5-2s-1.5.9-1.5 2-.7 2-1.5 2-1.5-.9-1.5-2-.4-2-1-2c-.5 0-1 .9-1 2 0 1.3-.7 2-2 2s-2-.7-2-2c0-1.1-.7-2-1.5-2s-1.5.9-1.5 2c0 1.6-.7 2-3 2-2 0-3 .5-3 1.5s-1.1 1.5-3.5 1.5-3.5-.5-3.5-1.5c0-.8-.4-1.5-1-1.5-.5 0-1-.9-1-2s-.7-2-1.5-2-1.5.9-1.5 2-.4 2-1 2c-.5 0-1 .7-1 1.5s-.9 1.5-2 1.5-2.3.1-2.7.1c-.5.1-1.3-1.6-1.9-3.7-1.2-4.5-3.4-5.8-3.4-2 0 1.6-.6 2.6-1.5 2.6-.8 0-1.5-.9-1.5-2s-.7-2-1.5-2-1.5.9-1.5 2c0 1.3-.7 2-2 2s-2-.7-2-2c0-1.1-.4-2-1-2-.5 0-1 .9-1 2 0 1.6-.7 2-3 2-2 0-3 .5-3 1.5 0 .8-.4 1.5-1 1.5-.5 0-1-.7-1-1.5 0-2.2-4.7-1.9-5.3.3-.4 1.6-.5 1.6-.6-.1 0-.9-.5-1.7-1.1-1.7-.5 0-1-.9-1-2s-.6-2-1.4-2c-.9 0-1.2.7-.9 2 .4 1.5 0 2-1.6 2s-2.1-.6-2.1-2.6c0-3.1-2.3-2.8-2.8.4-.4 2.8-3.2 2.9-3.2.2 0-1.1-.7-2-1.5-2s-1.5.9-1.5 2-.4 2-.9 2-1.2.8-1.4 1.8c-.4 1.6-.5 1.6-.6-.1-.1-1.3-1-1.7-4.6-1.7-3.9 0-4.5.3-4.5 2.1 0 3.1-1.8 1.3-2.6-2.6-.7-3.7-3.4-4.9-3.4-1.5 0 1.1-.4 2-.9 2s-1.2.8-1.4 1.8c-.4 1.6-.5 1.6-.6-.1-.1-2.2-5.1-2.4-5.1-.2 0 1-1 1.5-3 1.5s-3-.5-3-1.5c0-2.2-4.7-1.9-5.3.2-.4 1.7-.5 1.7-.6 0 0-.9-.5-1.7-1.1-1.7-.5 0-1-.9-1-2s-.4-2-1-2c-.5 0-1 .9-1 2 0 2-2.9 2.9-3.1 1-.1-.6-.2-1.6-.3-2.3-.2-2.1-3.1-1.3-3.4 1-.4 2.8-3.2 3.1-3.2.3 0-2.9-1.3-2.4-3.1 1.3-1.7 3.5-6.9 5.3-6.9 2.3 0-1-.9-1.6-2.5-1.6-1.9 0-2.5.5-2.5 2.1 0 1.1-.4 1.8-1 1.4-.5-.3-.7-1.2-.3-2 .3-.8 0-1.5-.6-1.5s-1.1-.9-1.1-2-.7-2-1.5-2-1.5.9-1.5 2c0 1.6-.7 2-3 2-2 0-3 .5-3 1.5 0 .8-.4 1.5-1 1.5-.5 0-1-.7-1-1.5s-.4-1.5-1-1.5c-.5 0-1-.9-1-2s-.4-2-1-2c-.5 0-1 .9-1 2.1 0 1.6-.6 2-2.7 1.8-6.1-.5-9.3.1-9.3 1.6 0 .8-.4 1.5-1 1.5-.5 0-1-.7-1-1.5 0-.9-.9-1.5-2.5-1.5s-2.5.6-2.5 1.5c0 1.2-1.9 1.5-11 1.5-9.3 0-10.9-.2-10.4-1.5.5-1.1-.1-1.5-2.5-1.5s-3.1-.4-3.1-2c0-3.4-2.7-2.2-3.4 1.5-.7 3.4-2.6 4.9-2.6 2 0-.8-.9-1.5-2-1.5s-2 .7-2 1.5-.4 1.5-1 1.5c-.5 0-1-.7-1-1.5 0-1-1-1.5-3-1.5-2.5 0-3-.4-3-2.5 0-1.6-.6-2.5-1.5-2.5s-1.5.9-1.5 2.5c0 1.4-.4 2.5-.9 2.5s-1.2.8-1.4 1.8c-.4 1.6-.5 1.6-.6-.1-.1-1.2-.9-1.7-3-1.7-2 0-3-.6-3.4-2-.7-2.6-2.7-2.6-2.7 0 0 1.6-.7 2-3.4 2-2.4 0-3.6.5-3.9 1.8-.4 1.6-.5 1.6-.6-.1 0-.9-.5-1.7-1.1-1.7-.5 0-1-.9-1-2s-.4-2-1-2c-.5 0-1 .9-1 2 0 1.3-.7 2-2 2s-2-.7-2-2c0-1.1-.4-2-1-2-.5 0-1 .9-1 2s-.4 2-1 2c-.5 0-1 .8-1 1.8 0 1.6-.7 1.9-3.7 1.7-2.6-.2-3.9-.8-4.1-1.9-.2-1-1.4-1.6-3.3-1.6-2.2 0-2.9-.5-2.9-2 0-3.4-2.7-2.2-3.4 1.5-.6 3.1-1.1 3.5-3.6 3.5-2 0-3-.5-3-1.5 0-.8-.4-1.5-1-1.5-.5 0-1-.9-1-2s-.7-2-1.5-2-1.5.9-1.5 2c0 2.6-2.6 2.6-3.3 0-.7-2.6-2.7-2.6-2.7 0 0 2.7-2.8 2.6-3.2-.2-.5-3.2-2.8-3.5-2.8-.4 0 1.4-.4 2.6-.9 2.6s-1.2.8-1.4 1.7c-.4 1.7-.5 1.7-.6 0-.1-2.3-9.1-2.6-9.1-.2 0 .8-.4 1.5-1 1.5-.5 0-1-.7-1-1.5 0-2.2-4.7-1.9-5.3.3-.4 1.6-.5 1.6-.6-.1 0-.9-.5-1.7-1.1-1.7-.5 0-1-.9-1-2s-.4-2-1-2c-.5 0-1 .9-1 2 0 1.3-.7 2-2 2s-2-.7-2-2c0-1.1-.4-2-1-2-.5 0-1 .9-1 2 0 1.3-.7 2-2 2s-2-.7-2-2c0-2.6-2-2.6-2.7 0-.4 1.4-1.4 2-3.3 2s-3 .6-3.3 1.8c-.4 1.6-.5 1.6-.6-.1-.1-2.2-5.1-2.4-5.1-.2 0 .8-.7 1.5-1.5 1.5s-1.5-.7-1.5-1.5c0-1.1-1.2-1.5-4.5-1.5-3.8 0-4.5.3-4.5 2 0 1.3-.5 1.8-1.5 1.4-.8-.4-1.5-1.2-1.5-2s-1-1.4-2.5-1.4c-1.6 0-2.5.6-2.5 1.5 0 2.2-4.2 1.9-6.3-.5-.9-1.1-1.7-2.5-1.7-3 0-.6-.4-1-1-1-.5 0-1 .7-1 1.5 0 1-1.1 1.5-3.5 1.5s-3.5.5-3.5 1.5c0 .8-.4 1.5-1 1.5-.5 0-1-.7-1-1.5 0-.9-.9-1.5-2.5-1.5s-2.5.6-2.5 1.5c0 .8-.4 1.5-1 1.5-.5 0-1-.7-1-1.5 0-1-1-1.5-3-1.5-2.3 0-3-.4-3-2 0-1.1-.7-2-1.5-2s-1.5.9-1.5 2-.5 2-1.1 2c-.6 0-.9.7-.5 1.5.4 1.2-.3 1.5-3.4 1.5-2.9 0-4-.4-4-1.5 0-1-1-1.5-3-1.5s-3-.5-3-1.5c0-.8-.7-1.5-1.5-1.5s-1.5.7-1.5 1.5-.7 1.5-1.5 1.5-1.5-.9-1.5-2-.7-2-1.5-2-1.5.9-1.5 2c0 1.6-.7 2-3 2-2 0-3 .5-3 1.5 0 1.1-1.1 1.5-4 1.5s-4-.4-4-1.5c0-.8-.9-1.5-2-1.5s-2 .7-2 1.5-.7 1.5-1.5 1.5-1.5-.7-1.5-1.5c0-1-1-1.5-2.9-1.5-2.3 0-3-.5-3.3-2.2-.5-3.7-2.5-3.1-4.1 1.4-.9 2.4-1.6 3.5-1.6 2.5-.1-1.3-1-1.7-3.6-1.7-2.8 0-3.5-.4-3.5-2 0-1.1-.4-2-1-2-.5 0-1 .9-1 2 0 1.3-.7 2-2 2s-2-.7-2-2c0-1.1-.4-2-1-2-.5 0-1 .9-1 2 0 1.3-.7 2-2 2-1.7 0-2-.7-2-4 0-3.2-.4-4-1.8-4-1 0-2.3.5-3 1.2-.9.9-1.2.8-1.2-.5 0-1.6-.1-1.6-2 0-1.1 1-2 2.2-2 2.7s-1.1 1.9-2.5 3.2c-1.3 1.2-2.7 3.4-3.1 4.8l-.6 2.6h862l3.5-3.9c1.9-2.2 4.5-4.2 5.6-4.6 1.2-.3 2.1-1.2 2.1-1.9s.9-2.1 2-3.1 2-2.4 2-3.2c0-.7.5-1.3 1-1.3 1.5 0 1.3-17.7-.2-18.3-.7-.3-4.8-.2-9 .1l-7.8.5v-2.7c0-1.4-.4-2.6-1-2.6-.5 0-1-.7-1-1.5 0-1-1-1.5-3-1.5-2.5 0-3 .4-3 2.4zM29 883.1c0 1.2-.7 1.9-2 1.9-2.2 0-2.6-2-.8-3.8 1.5-1.5 2.8-.6 2.8 1.9zm765 .4c0 .8-.4 1.5-1 1.5-.5 0-1-.7-1-1.5s.5-1.5 1-1.5c.6 0 1 .7 1 1.5zM38 853.5c0 .8-.4 1.5-1 1.5-.5 0-1.2 1.6-1.6 3.5-.3 1.9-1.2 3.9-2 4.6-.8.6-1.4 1.8-1.4 2.5 0 .8-.4 1.4-1 1.4-.5 0-1 .4-1 1 0 .5 1.7.7 3.8.6 3-.3 3.7-.8 3.6-2.5 0-1.2.5-2.1 1.3-2.1.7 0 1.3-.5 1.3-1 0-.6 1.1-1 2.5-1 1.6 0 2.5-.6 2.5-1.5s-1-1.5-2.6-1.5c-2.3 0-2.4-.2-1-1.5.8-.8 2.1-1.5 3-1.5 2.7 0 2.8-2 .1-3-3.8-1.4-6.5-1.2-6.5.5z"/><path d="M776 854.5c0 1.8.5 2.5 2 2.5s2-.7 2-2.5-.5-2.5-2-2.5-2 .7-2 2.5zM795.4 858.1c-.2.4 1.7 1 4.2 1.4 3 .4 5.4 1.5 6.9 3.1 1.2 1.3 2.6 2.4 3.1 2.4 1.1 0 5.4 5 5.4 6.2 0 .5.7 1.6 1.5 2.4 1.3 1.4 1.5 1.1 1.5-2.4 0-6.6-1.1-10.2-3-10.2-1 0-2.1.6-2.3 1.2-.3.7-.6.3-.6-1-.1-2.1-1.4-2.7-4.8-2.3-.7.1-1.3-.2-1.3-.8 0-1-9.9-1-10.6 0zM28.2 871.2c-.7.7-1.2 2-1.2 3 0 1.3.8 1.8 3 1.8 1.7 0 3-.5 3-1 0-.6.9-1 2-1s2-.5 2-1c0-.6-.9-1-2-1s-2-.5-2-1c0-1.4-3.3-1.3-4.8.2zM819 872c0 1.1.5 2 1 2 .6 0 1-.9 1-2s-.4-2-1-2c-.5 0-1 .9-1 2zM315 883.5c0 .8-.4 1.5-1 1.5-.5 0-1 .4-1 1 0 .5.9 1 2 1 1.5 0 2-.7 2-2.5 0-1.4-.4-2.5-1-2.5-.5 0-1 .7-1 1.5z"/></svg>